<svg width="85" height="27" viewBox="0 0 85 27" fill="none" xmlns="http://www.w3.org/2000/svg">
<path d="M18.1973 0H20.8311V27H18.1973V14.026H3.63382V27H1V0H3.63382V11.7273H18.1973V0Z" fill="#ED1B2C"/>
<path d="M27.8178 0H30.4516V27H27.8178V0Z" fill="#ED1B2C"/>
<path d="M40.9825 3.10577V10.505H40.0018V3.10577H40.9825ZM43.3982 3.10577V3.9087H37.5913V3.10577H43.3982Z" fill="white"/>
<path d="M46.17 10.6066C45.7812 10.6066 45.4284 10.5422 45.1119 10.4135C44.7987 10.2814 44.5286 10.0967 44.3015 9.85958C44.0778 9.62242 43.9058 9.34123 43.7853 9.01599C43.6649 8.69075 43.6047 8.33502 43.6047 7.94879V7.73535C43.6047 7.28815 43.6718 6.89007 43.806 6.54111C43.9402 6.18877 44.1225 5.89063 44.3531 5.6467C44.5837 5.40277 44.8452 5.21813 45.1377 5.09278C45.4302 4.96743 45.733 4.90475 46.0461 4.90475C46.4453 4.90475 46.7894 4.97251 47.0785 5.10803C47.371 5.24354 47.6101 5.43327 47.7959 5.6772C47.9818 5.91774 48.1194 6.20232 48.2089 6.53095C48.2983 6.85619 48.3431 7.21192 48.3431 7.59814V8.01994H44.1724V7.25258H47.3882V7.18143C47.3744 6.9375 47.3228 6.70035 47.2333 6.46997C47.1473 6.23959 47.0096 6.04987 46.8204 5.9008C46.6311 5.75173 46.373 5.6772 46.0461 5.6772C45.8293 5.6772 45.6298 5.72293 45.4474 5.81441C45.265 5.90249 45.1084 6.03462 44.9777 6.21079C44.8469 6.38696 44.7454 6.6021 44.6731 6.85619C44.6009 7.11028 44.5647 7.40334 44.5647 7.73535V7.94879C44.5647 8.20966 44.6009 8.45529 44.6731 8.68567C44.7488 8.91266 44.8572 9.11254 44.9983 9.28533C45.1428 9.45811 45.3166 9.59363 45.5196 9.69188C45.7261 9.79013 45.9601 9.83925 46.2216 9.83925C46.5589 9.83925 46.8445 9.77149 47.0785 9.63597C47.3125 9.50046 47.5172 9.31921 47.6927 9.09221L48.2708 9.5445C48.1504 9.72406 47.9972 9.89515 47.8114 10.0578C47.6256 10.2204 47.3968 10.3525 47.1249 10.4542C46.8565 10.5558 46.5382 10.6066 46.17 10.6066Z" fill="white"/>
<path d="M51.693 9.83417C51.9201 9.83417 52.13 9.78843 52.3227 9.69696C52.5154 9.60548 52.6737 9.48013 52.7976 9.3209C52.9215 9.15828 52.992 8.97364 53.0092 8.76697H53.9177C53.9005 9.09221 53.7886 9.39543 53.5822 9.67663C53.3791 9.95444 53.1125 10.1797 52.7821 10.3525C52.4518 10.5219 52.0887 10.6066 51.693 10.6066C51.2732 10.6066 50.9067 10.5338 50.5936 10.3881C50.2839 10.2424 50.0258 10.0425 49.8193 9.78843C49.6163 9.53434 49.4632 9.24298 49.3599 8.91435C49.2601 8.58233 49.2102 8.23168 49.2102 7.8624V7.64896C49.2102 7.27968 49.2601 6.93072 49.3599 6.6021C49.4632 6.27008 49.6163 5.97703 49.8193 5.72293C50.0258 5.46884 50.2839 5.26895 50.5936 5.12327C50.9067 4.97759 51.2732 4.90475 51.693 4.90475C52.13 4.90475 52.512 4.99284 52.8389 5.16901C53.1658 5.34179 53.4222 5.57895 53.608 5.88047C53.7972 6.17861 53.9005 6.5174 53.9177 6.89685H53.0092C52.992 6.66986 52.9266 6.46489 52.8131 6.28194C52.703 6.09899 52.5516 5.95331 52.3589 5.8449C52.1696 5.7331 51.9476 5.6772 51.693 5.6772C51.4005 5.6772 51.1545 5.73479 50.9549 5.84998C50.7587 5.96178 50.6022 6.11424 50.4852 6.30735C50.3716 6.49707 50.289 6.70882 50.2374 6.94258C50.1892 7.17296 50.1651 7.40842 50.1651 7.64896V7.8624C50.1651 8.10294 50.1892 8.3401 50.2374 8.57386C50.2856 8.80763 50.3665 9.01937 50.48 9.2091C50.597 9.39882 50.7536 9.55128 50.9497 9.66647C51.1493 9.77827 51.3971 9.83417 51.693 9.83417Z" fill="white"/>
<path d="M55.9462 2.69922V10.505H54.9913V2.69922H55.9462ZM55.7191 7.54733L55.3217 7.53208C55.3251 7.15602 55.3819 6.80876 55.492 6.4903C55.6021 6.16844 55.757 5.88894 55.9565 5.65179C56.1561 5.41463 56.3936 5.23169 56.6689 5.10294C56.9476 4.97082 57.2556 4.90475 57.5928 4.90475C57.8681 4.90475 58.1158 4.94202 58.3361 5.01655C58.5563 5.0877 58.7438 5.20289 58.8987 5.36212C59.057 5.52135 59.1774 5.72801 59.26 5.98211C59.3426 6.23281 59.3839 6.53942 59.3839 6.90193V10.505H58.4238V6.89176C58.4238 6.60379 58.3808 6.37341 58.2948 6.20063C58.2088 6.02446 58.0832 5.89741 57.918 5.81949C57.7528 5.73818 57.5498 5.69752 57.3089 5.69752C57.0715 5.69752 56.8547 5.74665 56.6585 5.8449C56.4658 5.94315 56.2989 6.07866 56.1578 6.25145C56.0202 6.42423 55.9118 6.62242 55.8327 6.84603C55.757 7.06624 55.7191 7.30001 55.7191 7.54733Z" fill="white"/>
<path d="M66.3522 7.60323H64.3443V6.80537H66.3522C66.741 6.80537 67.0559 6.74439 67.2967 6.62242C67.5376 6.50046 67.7131 6.33106 67.8232 6.11424C67.9368 5.89741 67.9936 5.65009 67.9936 5.37228C67.9936 5.11819 67.9368 4.87934 67.8232 4.65574C67.7131 4.43214 67.5376 4.25258 67.2967 4.11706C67.0559 3.97816 66.741 3.9087 66.3522 3.9087H64.5765V10.505H63.5803V3.10577H66.3522C66.9199 3.10577 67.4 3.20232 67.7923 3.39544C68.1845 3.58855 68.4822 3.85619 68.6852 4.19837C68.8883 4.53716 68.9898 4.92508 68.9898 5.36212C68.9898 5.83643 68.8883 6.24128 68.6852 6.57669C68.4822 6.91209 68.1845 7.16788 67.7923 7.34405C67.4 7.51683 66.9199 7.60323 66.3522 7.60323Z" fill="white"/>
<path d="M73.3359 9.56483V6.73423C73.3359 6.5174 73.2912 6.32937 73.2017 6.17014C73.1157 6.00752 72.9849 5.88217 72.8094 5.79408C72.6339 5.70599 72.4171 5.66195 72.159 5.66195C71.9182 5.66195 71.7065 5.70261 71.5242 5.78392C71.3452 5.86523 71.2041 5.97194 71.1009 6.10407C71.0011 6.2362 70.9512 6.37849 70.9512 6.53095H69.9963C69.9963 6.33445 70.0479 6.13965 70.1511 5.94654C70.2544 5.75342 70.4023 5.57895 70.5951 5.4231C70.7912 5.26387 71.0252 5.13852 71.297 5.04704C71.5723 4.95218 71.8786 4.90475 72.2158 4.90475C72.6219 4.90475 72.9797 4.97251 73.2894 5.10803C73.6026 5.24354 73.8469 5.44851 74.0224 5.72293C74.2013 5.99397 74.2908 6.33445 74.2908 6.74439V9.30565C74.2908 9.4886 74.3063 9.68341 74.3373 9.89007C74.3717 10.0967 74.4216 10.2746 74.4869 10.4237V10.505H73.4907C73.4426 10.3966 73.4047 10.2526 73.3772 10.073C73.3497 9.89007 73.3359 9.72067 73.3359 9.56483ZM73.5011 7.17127L73.5114 7.83191H72.5462C72.2743 7.83191 72.0317 7.85393 71.8184 7.89797C71.605 7.93863 71.4261 8.00131 71.2816 8.086C71.137 8.1707 71.0269 8.27742 70.9512 8.40616C70.8755 8.53151 70.8376 8.67889 70.8376 8.84829C70.8376 9.02107 70.8772 9.17861 70.9564 9.3209C71.0355 9.46319 71.1542 9.57669 71.3125 9.66138C71.4743 9.74269 71.6721 9.78335 71.9061 9.78335C72.1986 9.78335 72.4567 9.72237 72.6804 9.6004C72.904 9.47844 73.0813 9.32937 73.212 9.1532C73.3462 8.97703 73.4185 8.80594 73.4288 8.63993L73.8366 9.09221C73.8125 9.23451 73.7471 9.39205 73.6404 9.56483C73.5338 9.73761 73.391 9.90362 73.212 10.0629C73.0365 10.2187 72.8266 10.3491 72.5823 10.4542C72.3414 10.5558 72.0696 10.6066 71.7667 10.6066C71.3882 10.6066 71.0562 10.5338 70.7705 10.3881C70.4884 10.2424 70.2681 10.0476 70.1099 9.80368C69.955 9.55636 69.8776 9.28024 69.8776 8.97533C69.8776 8.68058 69.9361 8.42141 70.0531 8.1978C70.1701 7.97081 70.3387 7.78279 70.5589 7.63372C70.7791 7.48126 71.0441 7.36607 71.3538 7.28815C71.6635 7.21023 72.0093 7.17127 72.3913 7.17127H73.5011Z" fill="white"/>
<path d="M76.7478 5.87031V10.505H75.7929V5.00639H76.722L76.7478 5.87031ZM78.4924 4.9759L78.4872 5.84998C78.4081 5.83304 78.3324 5.82288 78.2601 5.81949C78.1913 5.81271 78.1122 5.80932 78.0227 5.80932C77.8025 5.80932 77.608 5.8432 77.4394 5.91096C77.2708 5.97872 77.128 6.07358 77.011 6.19555C76.894 6.31751 76.8011 6.46319 76.7323 6.63259C76.6669 6.7986 76.6239 6.98154 76.6032 7.18143L76.3348 7.33389C76.3348 7.00187 76.3675 6.69018 76.4329 6.39882C76.5017 6.10746 76.6067 5.84998 76.7478 5.62638C76.8888 5.39939 77.0678 5.22322 77.2846 5.09786C77.5048 4.96912 77.7663 4.90475 78.0692 4.90475C78.138 4.90475 78.2171 4.91322 78.3066 4.93016C78.3961 4.94371 78.458 4.95896 78.4924 4.9759Z" fill="white"/>
<path d="M80.3351 2.69922V10.505H79.3751V2.69922H80.3351ZM83.747 5.00639L81.3107 7.57273L79.948 8.96517L79.8706 7.96404L80.8461 6.81554L82.5805 5.00639H83.747ZM82.8747 10.505L80.8823 7.88273L81.3778 7.04422L83.9999 10.505H82.8747Z" fill="white"/>
<path d="M40.8845 20.7368H38.9798L38.9695 19.9491H40.6986C40.9842 19.9491 41.2337 19.9017 41.4471 19.8068C41.6604 19.712 41.8256 19.5765 41.9426 19.4003C42.063 19.2207 42.1233 19.0073 42.1233 18.76C42.1233 18.4889 42.0699 18.2687 41.9632 18.0993C41.86 17.9266 41.7 17.8012 41.4832 17.7233C41.2699 17.642 40.998 17.6013 40.6677 17.6013H39.2018V24.1976H38.2055V16.7984H40.6677C41.0531 16.7984 41.3972 16.8373 41.7 16.9153C42.0028 16.9898 42.2592 17.1084 42.4691 17.271C42.6824 17.4302 42.8442 17.6335 42.9543 17.8808C43.0644 18.1281 43.1195 18.4246 43.1195 18.7701C43.1195 19.0751 43.0403 19.3512 42.882 19.5985C42.7237 19.8424 42.5035 20.0423 42.2213 20.1982C41.9426 20.354 41.6157 20.4539 41.2406 20.498L40.8845 20.7368ZM40.838 24.1976H38.5875L39.1501 23.3997H40.838C41.1546 23.3997 41.423 23.3455 41.6432 23.2371C41.8669 23.1287 42.0372 22.9762 42.1542 22.7797C42.2712 22.5799 42.3297 22.3444 42.3297 22.0734C42.3297 21.7989 42.2798 21.5618 42.18 21.3619C42.0802 21.162 41.9237 21.0079 41.7103 20.8994C41.497 20.791 41.2217 20.7368 40.8845 20.7368H39.465L39.4753 19.9491H41.4161L41.6277 20.2337C41.9891 20.2642 42.2953 20.3659 42.5465 20.5386C42.7977 20.708 42.9887 20.9249 43.1195 21.1891C43.2537 21.4534 43.3208 21.7447 43.3208 22.0632C43.3208 22.524 43.2175 22.9136 43.0111 23.232C42.808 23.5471 42.5207 23.7876 42.1491 23.9537C41.7774 24.1163 41.3404 24.1976 40.838 24.1976Z" fill="white"/>
<path d="M46.9649 24.2992C46.5761 24.2992 46.2233 24.2349 45.9068 24.1061C45.5936 23.974 45.3235 23.7893 45.0964 23.5522C44.8727 23.315 44.7007 23.0338 44.5802 22.7086C44.4598 22.3834 44.3996 22.0276 44.3996 21.6414V21.428C44.3996 20.9808 44.4667 20.5827 44.6009 20.2337C44.7351 19.8814 44.9174 19.5832 45.148 19.3393C45.3786 19.0954 45.6401 18.9107 45.9326 18.7854C46.2251 18.66 46.5279 18.5974 46.841 18.5974C47.2402 18.5974 47.5843 18.6651 47.8734 18.8006C48.1659 18.9362 48.405 19.1259 48.5908 19.3698C48.7767 19.6103 48.9143 19.8949 49.0038 20.2236C49.0932 20.5488 49.138 20.9045 49.138 21.2908V21.7125H44.9673V20.9452H48.1831V20.874C48.1693 20.6301 48.1177 20.393 48.0282 20.1626C47.9422 19.9322 47.8045 19.7425 47.6153 19.5934C47.426 19.4443 47.1679 19.3698 46.841 19.3698C46.6242 19.3698 46.4247 19.4155 46.2423 19.507C46.0599 19.5951 45.9033 19.7272 45.7726 19.9034C45.6418 20.0796 45.5403 20.2947 45.468 20.5488C45.3958 20.8029 45.3596 21.0959 45.3596 21.428V21.6414C45.3596 21.9023 45.3958 22.1479 45.468 22.3783C45.5437 22.6053 45.6521 22.8051 45.7932 22.9779C45.9377 23.1507 46.1115 23.2862 46.3145 23.3845C46.521 23.4827 46.755 23.5319 47.0165 23.5319C47.3538 23.5319 47.6394 23.4641 47.8734 23.3286C48.1074 23.1931 48.3121 23.0118 48.4876 22.7848L49.0657 23.2371C48.9453 23.4167 48.7921 23.5878 48.6063 23.7504C48.4205 23.913 48.1917 24.0451 47.9198 24.1468C47.6514 24.2484 47.3331 24.2992 46.9649 24.2992Z" fill="white"/>
<path d="M51.2904 16.3918V24.1976H50.3303V16.3918H51.2904Z" fill="white"/>
<path d="M56.1166 23.2574V20.4268C56.1166 20.21 56.0718 20.022 55.9824 19.8627C55.8963 19.7001 55.7656 19.5748 55.5901 19.4867C55.4146 19.3986 55.1978 19.3546 54.9397 19.3546C54.6988 19.3546 54.4872 19.3952 54.3048 19.4765C54.1259 19.5578 53.9848 19.6646 53.8815 19.7967C53.7818 19.9288 53.7319 20.0711 53.7319 20.2236H52.777C52.777 20.0271 52.8286 19.8323 52.9318 19.6391C53.035 19.446 53.183 19.2716 53.3757 19.1157C53.5719 18.9565 53.8058 18.8311 54.0777 18.7397C54.353 18.6448 54.6592 18.5974 54.9965 18.5974C55.4025 18.5974 55.7604 18.6651 56.0701 18.8006C56.3832 18.9362 56.6276 19.1411 56.8031 19.4155C56.982 19.6866 57.0715 20.0271 57.0715 20.437V22.9983C57.0715 23.1812 57.087 23.376 57.1179 23.5827C57.1523 23.7893 57.2022 23.9672 57.2676 24.1163V24.1976H56.2714C56.2232 24.0892 56.1854 23.9452 56.1578 23.7656C56.1303 23.5827 56.1166 23.4133 56.1166 23.2574ZM56.2817 20.8639L56.2921 21.5245H55.3268C55.055 21.5245 54.8124 21.5465 54.599 21.5906C54.3857 21.6312 54.2067 21.6939 54.0622 21.7786C53.9177 21.8633 53.8076 21.97 53.7319 22.0988C53.6562 22.2241 53.6183 22.3715 53.6183 22.5409C53.6183 22.7137 53.6579 22.8712 53.737 23.0135C53.8162 23.1558 53.9349 23.2693 54.0932 23.354C54.2549 23.4353 54.4528 23.476 54.6868 23.476C54.9793 23.476 55.2374 23.415 55.461 23.293C55.6847 23.171 55.8619 23.022 55.9927 22.8458C56.1269 22.6696 56.1991 22.4985 56.2095 22.3325L56.6172 22.7848C56.5931 22.9271 56.5278 23.0847 56.4211 23.2574C56.3144 23.4302 56.1716 23.5962 55.9927 23.7555C55.8172 23.9113 55.6073 24.0417 55.3629 24.1468C55.1221 24.2484 54.8502 24.2992 54.5474 24.2992C54.1689 24.2992 53.8368 24.2264 53.5512 24.0807C53.269 23.935 53.0488 23.7402 52.8905 23.4963C52.7357 23.249 52.6582 22.9729 52.6582 22.6679C52.6582 22.3732 52.7167 22.114 52.8337 21.8904C52.9507 21.6634 53.1193 21.4754 53.3396 21.3263C53.5598 21.1739 53.8248 21.0587 54.1345 20.9808C54.4442 20.9028 54.79 20.8639 55.172 20.8639H56.2817Z" fill="white"/>
<path d="M59.5284 19.5629V24.1976H58.5735V18.699H59.5026L59.5284 19.5629ZM61.2731 18.6685L61.2679 19.5426C61.1888 19.5256 61.1131 19.5155 61.0408 19.5121C60.972 19.5053 60.8928 19.5019 60.8034 19.5019C60.5831 19.5019 60.3887 19.5358 60.2201 19.6036C60.0515 19.6713 59.9087 19.7662 59.7917 19.8882C59.6747 20.0101 59.5818 20.1558 59.5129 20.3252C59.4476 20.4912 59.4045 20.6742 59.3839 20.874L59.1155 21.0265C59.1155 20.6945 59.1482 20.3828 59.2136 20.0914C59.2824 19.8001 59.3873 19.5426 59.5284 19.319C59.6695 19.092 59.8484 18.9158 60.0652 18.7905C60.2855 18.6617 60.547 18.5974 60.8498 18.5974C60.9186 18.5974 60.9978 18.6058 61.0872 18.6228C61.1767 18.6363 61.2387 18.6516 61.2731 18.6685Z" fill="white"/>
<path d="M65.5727 22.9271V18.699H66.5328V24.1976H65.6192L65.5727 22.9271ZM65.7534 21.7684L66.1508 21.7583C66.1508 22.1242 66.1113 22.463 66.0321 22.7747C65.9564 23.083 65.8325 23.3506 65.6605 23.5776C65.4884 23.8046 65.263 23.9825 64.9843 24.1112C64.7056 24.2365 64.3666 24.2992 63.9675 24.2992C63.6956 24.2992 63.4461 24.2603 63.219 24.1823C62.9953 24.1044 62.8026 23.9841 62.6409 23.8215C62.4792 23.6589 62.3536 23.4472 62.2641 23.1863C62.1781 22.9254 62.1351 22.612 62.1351 22.2461V18.699H63.09V22.2563C63.09 22.5036 63.1175 22.7086 63.1726 22.8712C63.2311 23.0304 63.3085 23.1575 63.4048 23.2524C63.5046 23.3438 63.6147 23.4082 63.7352 23.4455C63.8591 23.4827 63.9864 23.5014 64.1171 23.5014C64.5232 23.5014 64.8449 23.4251 65.0824 23.2727C65.3198 23.1168 65.4902 22.9085 65.5934 22.6476C65.7001 22.3834 65.7534 22.0903 65.7534 21.7684Z" fill="white"/>
<path d="M71.2403 22.7391C71.2403 22.6036 71.2093 22.4782 71.1473 22.363C71.0888 22.2444 70.9667 22.1377 70.7809 22.0429C70.5985 21.9446 70.3232 21.8599 69.955 21.7888C69.6453 21.7244 69.3648 21.6482 69.1136 21.5601C68.8659 21.472 68.6543 21.3653 68.4788 21.2399C68.3067 21.1146 68.1742 20.9672 68.0813 20.7978C67.9884 20.6284 67.9419 20.4302 67.9419 20.2032C67.9419 19.9864 67.9901 19.7814 68.0865 19.5883C68.1863 19.3952 68.3256 19.2241 68.5046 19.0751C68.687 18.926 68.9055 18.8091 69.1601 18.7244C69.4147 18.6397 69.6986 18.5974 70.0118 18.5974C70.4591 18.5974 70.8411 18.6753 71.1577 18.8311C71.4743 18.987 71.7169 19.1953 71.8855 19.4562C72.0541 19.7137 72.1384 20 72.1384 20.315H71.1835C71.1835 20.1626 71.137 20.0152 71.0441 19.8729C70.9546 19.7272 70.8222 19.607 70.6467 19.5121C70.4746 19.4172 70.263 19.3698 70.0118 19.3698C69.7468 19.3698 69.5317 19.4105 69.3666 19.4918C69.2048 19.5697 69.0861 19.6696 69.0104 19.7916C68.9382 19.9136 68.902 20.0423 68.902 20.1778C68.902 20.2795 68.9192 20.3709 68.9536 20.4522C68.9915 20.5302 69.0569 20.603 69.1498 20.6708C69.2427 20.7351 69.3735 20.7961 69.5421 20.8537C69.7107 20.9113 69.9258 20.9689 70.1873 21.0265C70.6449 21.1281 71.0217 21.2501 71.3177 21.3924C71.6136 21.5347 71.8339 21.7092 71.9784 21.9158C72.1229 22.1225 72.1952 22.3732 72.1952 22.6679C72.1952 22.9085 72.1436 23.1287 72.0403 23.3286C71.9405 23.5285 71.7943 23.7013 71.6016 23.8469C71.4123 23.9892 71.1852 24.101 70.9202 24.1823C70.6587 24.2603 70.3645 24.2992 70.0376 24.2992C69.5455 24.2992 69.1291 24.2128 68.7885 24.04C68.4478 23.8673 68.1897 23.6437 68.0142 23.3692C67.8387 23.0948 67.751 22.8051 67.751 22.5002H68.711C68.7248 22.7577 68.8005 22.9627 68.9382 23.1151C69.0758 23.2642 69.2444 23.3709 69.444 23.4353C69.6436 23.4963 69.8414 23.5268 70.0376 23.5268C70.2991 23.5268 70.5176 23.4929 70.6931 23.4251C70.8721 23.3574 71.008 23.2642 71.1009 23.1456C71.1938 23.0271 71.2403 22.8915 71.2403 22.7391Z" fill="white"/>
</svg>
