<svg width="97" height="97" viewBox="0 0 97 97" fill="none" xmlns="http://www.w3.org/2000/svg">
<g clip-path="url(#clip0)">
<path d="M50.6862 34.8754C49.8981 34.0873 48.6169 34.0873 47.8288 34.8754L22.1076 60.5966C21.3195 61.3847 21.3195 62.6659 22.1076 63.454C22.5037 63.8461 23.021 64.0441 23.5384 64.0441C24.0557 64.0441 24.569 63.8461 24.9651 63.454L50.6862 37.7328C51.4744 36.9447 51.4744 35.6635 50.6862 34.8754ZM53.5437 40.5903L27.8225 66.3115C27.0344 67.0996 27.0344 68.3808 27.8225 69.1689C28.2186 69.561 28.736 69.759 29.2533 69.759C29.7706 69.759 30.288 69.561 30.68 69.1689L56.4012 43.4478C57.1893 42.6596 57.1893 41.3784 56.4012 40.5903C55.613 39.8022 54.3318 39.8022 53.5437 40.5903ZM51.9109 53.657L33.5375 72.0264C32.7493 72.8145 32.7493 74.0957 33.5375 74.8838C33.9335 75.2759 34.4509 75.4739 34.9682 75.4739C35.4855 75.4739 36.0029 75.2799 36.3949 74.8838L54.7683 56.5145C55.5565 55.7263 55.5565 54.4451 54.7683 53.657C53.9802 52.8689 52.699 52.8689 51.9109 53.657ZM14.1253 76.8036H16.1462C17.2617 76.8036 18.167 75.8983 18.167 74.7828C18.167 73.6673 17.2617 72.762 16.1462 72.762H14.1253C13.0098 72.762 12.1045 73.6673 12.1045 74.7828C12.1045 75.8983 13.0098 76.8036 14.1253 76.8036ZM14.1253 84.887H19.9009C21.0164 84.887 21.9217 83.9816 21.9217 82.8661C21.9217 81.7506 21.0164 80.8453 19.9009 80.8453H14.1253C13.0098 80.8453 12.1045 81.7506 12.1045 82.8661C12.1045 83.9816 13.0098 84.887 14.1253 84.887ZM86.8753 52.5536H80.8128C79.6973 52.5536 78.792 53.459 78.792 54.5745C78.792 55.69 79.6973 56.5953 80.8128 56.5953H84.8545V56.9308C82.5022 57.7674 80.8128 60.0146 80.8128 62.6497C80.8128 65.2849 82.5022 67.5321 84.8545 68.3687V69.0598C82.5022 69.8964 80.8128 72.1436 80.8128 74.7788C80.8128 77.4139 82.5022 79.6611 84.8545 80.4977V81.1888C82.5022 82.0255 80.8128 84.2726 80.8128 86.9078C80.8128 89.543 82.5022 91.7901 84.8545 92.6268V92.9703H6.04199C4.92649 92.9703 4.02116 92.065 4.02116 90.9495V58.6161C4.02116 57.5006 4.92649 56.5953 6.04199 56.5953C7.15749 56.5953 8.06283 55.69 8.06283 54.5745C8.06283 53.459 7.15749 52.5536 6.04199 52.5536C2.69953 52.5536 -0.0205078 55.2737 -0.0205078 58.6161V90.9495C-0.0205078 94.2919 2.69953 97.012 6.04199 97.012H86.8753C87.9908 97.012 88.8962 96.1066 88.8962 94.9911V90.9495C88.8962 89.834 87.9908 88.9286 86.8753 88.9286C85.7598 88.9286 84.8545 88.0233 84.8545 86.9078C84.8545 85.7923 85.7598 84.887 86.8753 84.887C87.9908 84.887 88.8962 83.9816 88.8962 82.8661V78.8245C88.8962 77.709 87.9908 76.8036 86.8753 76.8036C85.7598 76.8036 84.8545 75.8983 84.8545 74.7828C84.8545 73.6673 85.7598 72.762 86.8753 72.762C87.9908 72.762 88.8962 71.8566 88.8962 70.7411V66.6995C88.8962 65.584 87.9908 64.6786 86.8753 64.6786C85.7598 64.6786 84.8545 63.7733 84.8545 62.6578C84.8545 61.5423 85.7598 60.637 86.8753 60.637C87.9908 60.637 88.8962 59.7316 88.8962 58.6161V54.5745C88.8962 53.459 87.9908 52.5536 86.8753 52.5536ZM96.4258 29.1686L93.5683 26.3111C92.8085 25.5513 91.4667 25.5553 90.7068 26.3111C89.951 27.075 88.6173 27.075 87.8494 26.3111C87.4695 25.9271 87.2593 25.4179 87.2593 24.8804C87.2593 24.3388 87.4654 23.8336 87.8494 23.4536C88.2252 23.0737 88.4395 22.5604 88.4395 22.0229C88.4395 21.4853 88.2293 20.9721 87.8494 20.5921L84.9919 17.7306C84.612 17.3548 84.0987 17.1406 83.5612 17.1406C83.0236 17.1406 82.5103 17.3507 82.1304 17.7306C81.3665 18.4986 80.0368 18.4986 79.273 17.7306C78.893 17.3507 78.6829 16.8455 78.6829 16.3039C78.6829 15.7623 78.893 15.2571 79.273 14.8732C79.6488 14.4933 79.863 13.9759 79.863 13.4424C79.863 12.9049 79.6529 12.3916 79.273 12.0117L76.4115 9.15423C76.0315 8.77835 75.5142 8.56414 74.9807 8.56414C74.4432 8.56414 73.9299 8.77431 73.55 9.15423C72.7901 9.9181 71.4604 9.9181 70.6925 9.15423C70.3126 8.77027 70.1024 8.26102 70.1024 7.72348C70.1024 7.18189 70.3085 6.67668 70.6925 6.29677C71.0684 5.91685 71.2826 5.40356 71.2826 4.86602C71.2826 4.32848 71.0724 3.81518 70.6925 3.43527L67.835 0.577809C67.0469 -0.206275 65.7697 -0.206275 64.9776 0.577809L9.83712 55.5121C8.69333 56.6559 8.06283 58.1796 8.06283 59.8003C8.06283 61.4211 8.69333 62.9448 9.83712 64.0886L32.9029 87.1543C34.0507 88.2981 35.5745 88.9286 37.1911 88.9286C38.8118 88.9286 40.3355 88.2981 41.4915 87.1624L96.4258 32.026C97.2139 31.2338 97.2139 29.9567 96.4258 29.1686ZM38.6178 84.2969C37.854 85.0608 36.5283 85.0567 35.7604 84.2969L12.6946 61.2311C12.3147 60.8471 12.1045 60.3379 12.1045 59.8003C12.1045 59.2588 12.3147 58.7536 12.6946 58.3736L66.4043 4.86602L66.6427 5.10852C66.2547 5.91281 66.0527 6.80198 66.0527 7.72348C66.0527 9.34418 66.6832 10.8679 67.827 12.0117C69.6215 13.8062 72.5112 14.2629 74.7301 13.1959L75.2192 13.6809C74.8312 14.4892 74.6291 15.3744 74.6291 16.2959C74.6291 17.9166 75.2596 19.4403 76.4034 20.5841C78.1979 22.3786 81.0796 22.8353 83.3065 21.7683L83.7915 22.2573C83.4035 23.0616 83.2015 23.9508 83.2015 24.8723C83.2015 26.493 83.832 28.0167 84.9757 29.1605C86.7702 30.9509 89.66 31.4076 91.8789 30.3447L92.1255 30.5912L38.6178 84.2969Z" fill="#175CD7"/>
</g>
<defs>
<clipPath id="clip0">
<rect width="97" height="97" fill="white"/>
</clipPath>
</defs>
</svg>
