<svg width="118" height="118" viewBox="0 0 118 118" fill="none" xmlns="http://www.w3.org/2000/svg">
<path d="M59.0002 115.542C27.8236 115.542 2.4585 90.1766 2.4585 59C2.4585 27.8234 27.8236 2.45834 59.0002 2.45834C90.1768 2.45834 115.542 27.8234 115.542 59C115.542 90.1766 90.1768 115.542 59.0002 115.542ZM59.0002 7.37501C30.5327 7.37501 7.37516 30.5325 7.37516 59C7.37516 87.4675 30.5327 110.625 59.0002 110.625C87.4677 110.625 110.625 87.4675 110.625 59C110.625 30.5325 87.4677 7.37501 59.0002 7.37501Z" fill="#175CD7"/>
<path d="M98.3335 95.875H19.6668C18.3098 95.875 17.2085 94.7737 17.2085 93.4167C17.2085 92.0597 18.3098 90.9583 19.6668 90.9583H98.3335C99.6905 90.9583 100.792 92.0597 100.792 93.4167C100.792 94.7737 99.6905 95.875 98.3335 95.875Z" fill="#175CD7"/>
<path d="M73.7503 95.875C72.3933 95.875 71.292 94.7737 71.292 93.4167C71.292 86.6415 65.7804 81.125 59.0003 81.125C52.2202 81.125 46.7087 86.6415 46.7087 93.4167C46.7087 94.7737 45.6073 95.875 44.2503 95.875C42.8933 95.875 41.792 94.7737 41.792 93.4167C41.792 83.9275 49.5112 76.2083 59.0003 76.2083C68.4895 76.2083 76.2087 83.9275 76.2087 93.4167C76.2087 94.7737 75.1073 95.875 73.7503 95.875Z" fill="#175CD7"/>
<path d="M54.0825 81.125C53.1828 81.125 52.3175 80.6284 51.8848 79.768L32.2181 40.4346C31.6134 39.2202 32.1001 37.7403 33.3145 37.1355C34.5339 36.5308 36.004 37.0175 36.6136 38.232L56.2803 77.5653C56.885 78.7797 56.3934 80.2547 55.179 80.8644C54.825 81.0414 54.4513 81.125 54.0825 81.125Z" fill="#175CD7"/>
<path d="M59.0003 22.125C57.6433 22.125 56.542 21.0237 56.542 19.6667V4.91668C56.542 3.55968 57.6433 2.45834 59.0003 2.45834C60.3573 2.45834 61.4587 3.55968 61.4587 4.91668V19.6667C61.4587 21.0237 60.3573 22.125 59.0003 22.125Z" fill="#175CD7"/>
<path d="M29.4995 31.9583C28.5998 31.9583 27.7344 31.4617 27.3018 30.6013L22.3851 20.768C21.7804 19.5536 22.2671 18.0736 23.4815 17.4689C24.7009 16.8641 26.1709 17.3509 26.7806 18.5653L31.6973 28.3986C32.302 29.6131 31.8153 31.093 30.6009 31.6977C30.2419 31.8747 29.8683 31.9583 29.4995 31.9583Z" fill="#175CD7"/>
<path d="M44.2512 24.5833C43.2777 24.5833 42.3533 23.9982 41.9698 23.0395L37.0532 10.7478C36.5467 9.48912 37.1564 8.05837 38.42 7.55196C39.6737 7.04062 41.1094 7.66012 41.6109 8.92371L46.5276 21.2154C47.034 22.474 46.4243 23.9048 45.1607 24.4112C44.8657 24.5292 44.556 24.5833 44.2512 24.5833Z" fill="#175CD7"/>
<path d="M19.6661 41.7917C19.0368 41.7917 18.4074 41.5508 17.9256 41.0739L10.5506 33.6989C9.59186 32.7402 9.59186 31.1816 10.5506 30.2228C11.5094 29.2641 13.0679 29.2641 14.0267 30.2228L21.4017 37.5978C22.3604 38.5566 22.3604 40.1152 21.4017 41.0739C20.9248 41.5508 20.2954 41.7917 19.6661 41.7917Z" fill="#175CD7"/>
<path d="M14.7506 56.5416C14.2786 56.5416 13.8066 56.4089 13.3886 56.1286L6.01365 51.212C4.88773 50.4597 4.57798 48.9356 5.33023 47.8047C6.08248 46.6739 7.61648 46.374 8.73748 47.1213L16.1125 52.038C17.2384 52.7902 17.5481 54.3144 16.7959 55.4452C16.319 56.1581 15.5421 56.5416 14.7506 56.5416Z" fill="#175CD7"/>
<path d="M14.7508 68.8333C14.4902 68.8333 14.2345 68.794 13.974 68.7055L6.59895 66.2472C5.31078 65.8194 4.61753 64.428 5.04528 63.1398C5.48287 61.8517 6.8792 61.1682 8.15753 61.5862L15.5325 64.0445C16.8207 64.4722 17.5139 65.8637 17.0862 67.1518C16.7371 68.1843 15.7784 68.8333 14.7508 68.8333Z" fill="#175CD7"/>
<path d="M88.5004 31.9583C88.1316 31.9583 87.7579 31.8747 87.399 31.6977C86.1846 31.0881 85.6929 29.6131 86.2977 28.3987L91.2144 18.5653C91.8289 17.346 93.299 16.8691 94.5134 17.464C95.7279 18.0737 96.2195 19.5487 95.6148 20.7631L90.6981 30.5964C90.2654 31.4617 89.4001 31.9583 88.5004 31.9583Z" fill="#175CD7"/>
<path d="M73.751 24.5833C73.4462 24.5833 73.1364 24.5292 72.8365 24.4063C71.5729 23.8999 70.9632 22.4691 71.4697 21.2104L76.3863 8.91878C76.8878 7.66011 78.3186 7.04061 79.5772 7.54703C80.8408 8.05344 81.4505 9.48419 80.9441 10.7429L76.0274 23.0345C75.6488 23.9982 74.7245 24.5833 73.751 24.5833Z" fill="#175CD7"/>
<path d="M98.3326 41.7917C97.7033 41.7917 97.0739 41.5508 96.5921 41.0739C95.6334 40.1152 95.6334 38.5566 96.5921 37.5978L103.967 30.2228C104.926 29.2641 106.484 29.2641 107.443 30.2228C108.402 31.1816 108.402 32.7402 107.443 33.6989L100.068 41.0739C99.5913 41.5508 98.9619 41.7917 98.3326 41.7917Z" fill="#175CD7"/>
<path d="M103.25 56.5416C102.458 56.5416 101.681 56.1581 101.205 55.4452C100.452 54.3144 100.757 52.7902 101.888 52.038L109.263 47.1213C110.384 46.369 111.913 46.669 112.67 47.8047C113.422 48.9355 113.118 50.4597 111.987 51.212L104.612 56.1286C104.194 56.4089 103.722 56.5416 103.25 56.5416Z" fill="#175CD7"/>
<path d="M103.25 68.8334C102.223 68.8334 101.264 68.1844 100.915 67.1519C100.487 65.8637 101.185 64.4723 102.469 64.0446L109.844 61.5862C111.137 61.1634 112.523 61.8517 112.956 63.1399C113.384 64.4281 112.685 65.8195 111.402 66.2472L104.027 68.7056C103.767 68.7941 103.511 68.8334 103.25 68.8334Z" fill="#175CD7"/>
</svg>
