<svg width="106" height="106" viewBox="0 0 106 106" fill="none" xmlns="http://www.w3.org/2000/svg">
<path d="M90.8067 103.173H15.1933C6.71333 103.173 0 96.4601 0 88.3334V43.8134C0 35.6867 7.06667 29.3267 15.9 29.3267H90.1C98.9333 29.3267 106 35.6867 106 43.4601V87.6267C106 96.1067 98.9333 103.173 90.8067 103.173ZM15.9 32.5067C9.18667 32.5067 3.53333 37.4534 3.53333 43.8134V88.3334C3.53333 94.6934 8.83333 99.9934 15.1933 99.9934H90.8067C96.8133 99.9934 102.467 94.3401 102.467 87.6267V43.1067C102.467 36.3934 96.1067 32.5067 90.1 32.5067H15.9Z" fill="#175CD7"/>
<path d="M104.233 81.9734H86.5665C78.0865 81.9734 70.6665 74.5534 70.6665 66.0734C70.6665 57.5934 78.0865 50.1734 86.5665 50.1734H104.233C105.293 50.1734 106 50.88 106 51.94V80.2067C106 81.2667 105.293 81.9734 104.233 81.9734ZM86.5665 53.7067C80.2065 53.7067 74.1998 59.7134 74.1998 66.0734C74.1998 72.4334 80.2065 78.44 86.5665 78.44H102.466V53.7067H86.5665Z" fill="#175CD7"/>
<path d="M88.333 32.5067C87.6263 32.5067 86.9197 32.1534 86.5663 31.4467L77.733 12.0134C76.673 9.54003 74.1997 7.77336 71.0197 6.71336C67.4863 5.65336 63.5997 6.0067 60.773 7.42003L14.8397 32.1534C14.133 32.86 13.073 32.5067 12.7197 31.8C12.3663 31.0934 12.7197 30.0334 13.4263 29.3267L59.3597 4.59336C63.2463 2.47336 68.193 2.12003 72.433 3.53336C76.3197 4.9467 79.4997 7.42003 81.2663 10.6L90.0997 30.0334C90.453 31.0934 90.0997 31.8 89.393 32.5067C88.6863 32.5067 88.6863 32.5067 88.333 32.5067Z" fill="#175CD7"/>
<path d="M47.6994 32.5067C46.9927 32.5067 46.6394 32.1533 46.2861 31.4467C45.9327 30.74 46.2861 29.68 46.9927 28.9733L78.7927 11.3067C79.4994 10.9533 80.5594 11.3067 81.2661 12.0133C81.6194 12.72 81.2661 13.78 80.5594 14.4867L48.7594 32.1533C48.4061 32.5067 48.0527 32.5067 47.6994 32.5067Z" fill="#175CD7"/>
<path d="M1.76667 45.5801C0.706667 45.5801 0 44.8734 0 43.8134V39.9267C0 26.1467 10.2467 15.1934 22.9667 15.1934H38.8667C39.9267 15.1934 40.6333 15.9001 40.6333 16.9601C40.6333 18.0201 39.9267 18.3734 38.8667 18.3734H22.9667C12.0133 18.3734 3.53333 27.5601 3.53333 39.5734V43.4601C3.53333 44.5201 2.82667 45.5801 1.76667 45.5801Z" fill="#175CD7"/>
<path d="M104.233 44.8734C103.173 44.8734 102.467 44.1667 102.467 43.1067V38.8667C102.467 27.2067 93.9866 18.7267 83.0333 18.7267C81.9733 18.3734 81.2666 17.6667 81.2666 16.6067C81.2666 15.5467 81.9733 14.84 83.0333 14.84C96.1066 14.84 106 25.0867 106 38.5134V43.1067C106 44.1667 105.293 44.8734 104.233 44.8734Z" fill="#175CD7"/>
<path d="M86.5666 71.3734C83.7399 71.3734 81.2666 68.9 81.2666 66.0734C81.2666 63.2467 83.7399 60.7734 86.5666 60.7734C89.3933 60.7734 91.8666 63.2467 91.8666 66.0734C91.8666 68.9 89.3933 71.3734 86.5666 71.3734ZM86.5666 64.3067C85.5066 64.3067 84.7999 65.0134 84.7999 66.0734C84.7999 67.1334 85.5066 67.84 86.5666 67.84C87.6266 67.84 88.3333 67.1334 88.3333 66.0734C88.3333 65.0134 87.6266 64.3067 86.5666 64.3067Z" fill="#175CD7"/>
</svg>
