<svg width="16" height="16" viewBox="0 0 16 16" fill="none" xmlns="http://www.w3.org/2000/svg">
<path d="M1.00308 7.79021C1.00103 7.8599 1 7.92979 1 8C1 8.07016 1.00103 8.14011 1.00308 8.20979C3.83886 8.24516 5.43303 8.43912 6.49698 9.50302C7.56089 10.567 7.75484 12.1611 7.79021 14.9969C7.8599 14.999 7.92984 15 8 15C8.07016 15 8.14011 14.999 8.20979 14.9969C8.24516 12.1611 8.43912 10.567 9.50302 9.50302C10.567 8.43912 12.1611 8.24516 14.9969 8.20979C14.999 8.14011 15 8.07016 15 8C15 7.92979 14.999 7.8599 14.9969 7.79021C12.1611 7.75484 10.567 7.56089 9.50302 6.49693C8.43912 5.43302 8.24516 3.83885 8.20979 1.00308C8.14011 1.00103 8.07016 1 8 1C7.92984 1 7.8599 1.00103 7.79021 1.00308C7.75484 3.83886 7.56089 5.43302 6.49698 6.49693C5.43302 7.56089 3.83886 7.75484 1.00308 7.79021Z" fill="white"/>
</svg>
