<svg width="16" height="16" viewBox="0 0 16 16" fill="none" xmlns="http://www.w3.org/2000/svg">
<path d="M2.82519 7.30461C6.04611 5.89354 8.19431 4.96301 9.26887 4.51395C12.3379 3.23065 12.975 3.00751 13.3903 3.0001C13.4824 2.99825 13.6868 3.0214 13.8185 3.12973C13.9069 3.20651 13.9635 3.31392 13.9769 3.43064C13.9992 3.57517 14.0054 3.72176 13.9953 3.86767C13.8286 5.62502 13.1086 9.88786 12.743 11.8563C12.5883 12.6887 12.2826 12.9674 11.988 12.9952C11.4797 13.0415 11.0681 12.747 10.6105 12.4183C10.4898 12.3322 10.3664 12.2443 10.2375 12.1591C9.72926 11.8239 9.337 11.5554 8.94383 11.286L8.91248 11.2645C8.56277 11.0253 8.20976 10.7838 7.77167 10.4934C6.83246 9.8712 7.22472 9.48973 7.74957 8.98234C7.83428 8.89993 7.92267 8.81382 8.00923 8.72401C8.0479 8.68327 8.23666 8.50642 8.50369 8.25736C9.36002 7.45738 11.0119 5.91205 11.0543 5.73335C11.0607 5.70373 11.0672 5.59447 11.0027 5.53706C10.9383 5.47873 10.8425 5.4991 10.7734 5.51484C10.6758 5.53706 9.12246 6.56944 6.11333 8.6129C5.67227 8.9166 5.27265 9.06474 4.91446 9.05733C4.52036 9.049 3.76163 8.83327 3.19719 8.64901C3.11432 8.62123 3.03329 8.59624 2.95502 8.57124C2.38229 8.39069 1.96057 8.25736 2.00293 7.91848C2.02779 7.71848 2.30219 7.51386 2.82519 7.30461Z" fill="white"/>
</svg>
