<svg width="14" height="14" viewBox="0 0 14 14" fill="none" xmlns="http://www.w3.org/2000/svg">
<path d="M12.8313 13.6666C5.7216 13.6767 0.325776 8.21616 0.333382 1.16868C0.333382 0.70844 0.706478 0.333252 1.16672 0.333252H3.36618C3.77916 0.333252 4.12998 0.636693 4.19062 1.04519C4.33597 2.02425 4.62102 2.97739 5.03711 3.8755L5.12275 4.06034C5.24182 4.31734 5.16111 4.6227 4.9306 4.78731C4.24946 5.27374 3.98914 6.25288 4.51979 7.01688C5.18569 7.97562 6.02508 8.81484 6.9836 9.48043C7.74756 10.0109 8.72654 9.75065 9.21296 9.06962C9.37768 8.839 9.68321 8.75825 9.94037 8.87737L10.1244 8.9626C11.0225 9.37866 11.9757 9.66373 12.9549 9.80905C13.3634 9.86967 13.6667 10.2205 13.6667 10.6335V12.8332C13.6667 13.2935 13.2927 13.6666 12.8325 13.6666L12.8313 13.6666Z" fill="white"/>
</svg>
