<svg width="46" height="47" viewBox="0 0 46 47" fill="none" xmlns="http://www.w3.org/2000/svg">
<rect width="46" height="46.0668" rx="23" fill="url(#paint0_linear_3103_61672)"/>
<path d="M28.9778 25.3812V18.955C28.9778 18.6219 28.7114 18.3223 28.3451 18.3223H26.8469L25.3486 15.7918C25.1821 15.4922 24.8824 15.3257 24.5494 15.3257C24.2164 15.3257 23.9167 15.4922 23.7502 15.7918L22.252 18.3223H15.2264C14.8934 18.3223 14.5938 18.5887 14.5938 18.955V25.3812C14.5938 27.2792 15.3595 29.0439 16.6915 30.3756C18.0567 31.7073 19.8546 32.4399 21.7858 32.4399C25.7481 32.4067 28.9778 29.2436 28.9778 25.3811V25.3812ZM15.8258 25.3812V19.5543H22.5849C22.8181 19.5543 23.0179 19.4212 23.1177 19.2547L24.5162 16.8905L25.9146 19.2547C26.0145 19.4544 26.2477 19.5543 26.4474 19.5543H27.6793V25.3812C27.6793 28.5777 25.0155 31.1748 21.7193 31.1748C20.1211 31.1748 18.6228 30.5756 17.524 29.4767C16.4582 28.378 15.8258 26.9129 15.8258 25.3811L15.8258 25.3812Z" fill="white"/>
<path d="M35.9025 8H29.3431C28.1776 8 27.2454 8.9323 27.2454 10.0643V10.8967C25.5805 9.96442 23.716 9.49828 21.7848 9.49828C15.6915 9.49828 10.6638 14.3928 10.3641 20.5527H10.1644C8.96571 20.5527 8.00023 21.5181 8.00023 22.7168L8 27.3784C8 28.5771 8.96547 29.5426 10.1641 29.5426H11.7957C12.9944 29.5426 13.9599 28.5771 13.9599 27.3784V22.7502C13.9599 21.5515 12.9944 20.5861 11.7957 20.5861H11.6292C11.9288 15.0921 16.3573 10.7304 21.7846 10.7304C23.749 10.7304 25.6135 11.2964 27.2452 12.3285V14.1931C27.2452 15.1254 27.8779 15.9245 28.7103 16.191V17.0566C28.7103 17.556 29.3761 18.2885 30.1087 17.7225L31.1408 16.9233C31.6402 18.0553 31.94 19.2875 32.0065 20.5525H31.84C30.6413 20.5525 29.6758 21.518 29.6758 22.7167V27.3785C29.6758 28.344 30.3085 29.1432 31.1741 29.4428C29.9422 32.0067 27.6782 34.0378 24.8811 34.9034C24.5148 34.3042 23.849 33.8713 23.0832 33.8713H20.5193C19.3538 33.8713 18.4216 34.8036 18.4216 35.969C18.4216 37.1345 19.3539 38.0668 20.5193 38.0668H23.0832C24.2152 38.0668 25.1143 37.2011 25.1809 36.0689C28.4773 35.0699 31.1743 32.6393 32.4395 29.5095H33.4385C34.6371 29.5095 35.6026 28.544 35.6026 27.3453L35.6024 22.7504C35.6024 21.5517 34.6369 20.5863 33.4382 20.5863H33.2385C33.1718 19.088 32.8056 17.6561 32.2064 16.3243H35.9023C37.0678 16.3243 38 15.392 38 14.26L37.9998 10.0646C37.9998 8.9323 37.0675 8 35.9023 8H35.9025ZM12.6949 22.7503V27.3785C12.6949 27.8778 12.262 28.3108 11.7626 28.3108H10.131C9.63169 28.3108 9.19875 27.8778 9.19875 27.3785V22.7503C9.19875 22.2509 9.63167 21.818 10.131 21.818H11.7626C12.2952 21.818 12.6949 22.2175 12.6949 22.7503ZM23.9158 36.0022C23.9158 36.4684 23.5163 36.8679 23.0501 36.8679H20.4863C20.0201 36.8679 19.6206 36.4684 19.6206 36.0022C19.6206 35.5361 20.0201 35.1366 20.4863 35.1366H23.0501C23.5495 35.1366 23.9158 35.5028 23.9158 36.0022ZM34.3708 22.7503V27.3785C34.3708 27.8778 33.9379 28.3108 33.4385 28.3108H31.807C31.3076 28.3108 30.8747 27.8778 30.8747 27.3785V22.7503C30.8747 22.2509 31.3076 21.818 31.807 21.818H33.4385C33.9379 21.818 34.3708 22.2175 34.3708 22.7503ZM36.735 14.2264C36.735 14.6926 36.3687 15.0588 35.8693 15.0588H31.7405C31.6075 15.0588 31.4741 15.092 31.3411 15.1919L29.9758 16.2575V15.6583C29.9758 15.3252 29.7094 15.0256 29.3432 15.0256C28.877 15.0256 28.4775 14.6593 28.4775 14.1932L28.4773 10.0644C28.4773 9.59825 28.8435 9.23198 29.3429 9.23198H35.9023C36.3684 9.23198 36.7679 9.59825 36.7679 10.0644L36.735 14.2264Z" fill="white"/>
<path d="M32.6053 11.5293C32.2723 11.5293 31.9727 11.7957 31.9727 12.162C31.9727 12.495 32.2391 12.7947 32.6053 12.7947C32.9384 12.7947 33.238 12.5283 33.238 12.162C33.238 11.7957 32.9716 11.5293 32.6053 11.5293Z" fill="white"/>
<path d="M34.6757 11.5293C34.3426 11.5293 34.043 11.7957 34.043 12.162C34.043 12.495 34.3094 12.7947 34.6757 12.7947C35.0087 12.7947 35.3083 12.5283 35.3083 12.162C35.3083 11.7957 35.0087 11.5293 34.6757 11.5293Z" fill="white"/>
<path d="M30.578 12.7605C30.9111 12.7605 31.2107 12.4941 31.2107 12.1278C31.2107 11.7947 30.9443 11.4951 30.578 11.4951C30.2449 11.4951 29.9453 11.7615 29.9453 12.1278C29.9453 12.4941 30.2117 12.7605 30.578 12.7605Z" fill="white"/>
<defs>
<linearGradient id="paint0_linear_3103_61672" x1="21.8942" y1="46.0668" x2="77.4626" y2="-9.44536" gradientUnits="userSpaceOnUse">
<stop stop-color="#0260FD"/>
<stop offset="1" stop-color="#0ACBFF"/>
</linearGradient>
</defs>
</svg>
