<?xml version="1.0" standalone="no"?>
<!DOCTYPE svg PUBLIC "-//W3C//DTD SVG 20010904//EN"
 "http://www.w3.org/TR/2001/REC-SVG-20010904/DTD/svg10.dtd">
<svg version="1.0" xmlns="http://www.w3.org/2000/svg"
 width="1024.000000pt" height="1024.000000pt" viewBox="0 0 1024.000000 1024.000000"
 preserveAspectRatio="xMidYMid meet">
<metadata>
Created by potrace 1.11, written by Peter Selinger 2001-2013
</metadata>
<g transform="translate(0.000000,1024.000000) scale(0.100000,-0.100000)"
fill="#000000" stroke="none">
<path d="M1108 9215 c-2 -1 -33 -5 -70 -8 -94 -8 -247 -51 -347 -98 -268 -125
-487 -354 -586 -614 -15 -38 -31 -79 -35 -90 -11 -25 -36 -144 -45 -210 -7
-55 -8 -223 -1 -270 27 -181 70 -302 232 -653 19 -40 34 -75 34 -77 0 -4 99
-231 135 -310 7 -16 37 -84 65 -150 29 -66 62 -142 75 -170 12 -27 51 -115 85
-195 34 -80 73 -167 85 -195 23 -50 75 -169 200 -455 37 -85 74 -169 82 -186
8 -17 15 -41 16 -53 1 -11 5 -21 10 -21 4 0 6 -4 3 -8 -3 -5 2 -51 10 -103 23
-140 23 -372 -1 -489 -34 -174 -43 -197 -233 -630 -88 -201 -167 -381 -175
-400 -9 -19 -24 -55 -35 -80 -589 -1347 -568 -1295 -597 -1457 -13 -75 -14
-297 -1 -371 18 -107 77 -280 126 -367 121 -216 294 -381 510 -487 172 -84
332 -118 535 -113 77 2 154 5 170 8 76 14 173 40 234 63 115 45 145 56 166 64
11 5 65 25 120 45 55 20 111 41 124 46 13 6 175 66 360 135 185 69 345 129
356 134 25 11 163 63 280 105 50 18 137 51 195 72 58 22 312 117 565 212 253
94 478 179 500 187 84 34 117 46 365 138 140 52 269 100 285 107 17 7 35 13
40 15 6 1 53 19 105 39 52 20 106 40 120 45 27 8 233 86 265 99 22 9 93 36
205 76 41 15 89 33 105 40 17 7 89 34 160 60 72 27 144 54 160 60 17 7 99 39
184 70 84 31 163 60 175 65 11 5 55 21 96 35 41 15 84 31 95 36 11 5 110 42
220 83 110 41 211 79 225 84 14 6 203 77 420 157 217 81 409 153 425 160 17 7
71 27 120 45 50 18 101 37 115 43 14 6 27 11 30 11 6 1 65 24 95 36 11 5 83
32 160 60 77 28 149 55 160 59 11 5 47 19 80 31 33 12 76 28 95 36 40 16 223
83 325 120 39 14 79 29 90 35 11 5 94 36 185 70 91 33 197 76 235 96 224 114
414 304 523 526 14 29 27 57 28 62 2 6 14 40 28 76 79 210 84 490 14 724 -92
306 -325 579 -608 713 -52 24 -1847 702 -1940 732 -14 5 -79 30 -145 55 -66
26 -124 48 -130 49 -5 2 -21 7 -35 13 -14 6 -95 36 -180 68 -85 31 -194 72
-242 91 -49 19 -90 34 -93 34 -3 0 -47 16 -98 36 -86 33 -119 45 -257 97 -30
11 -74 28 -97 39 -24 10 -46 18 -49 18 -8 0 -216 76 -259 95 -16 7 -100 38
-185 70 -85 31 -182 67 -215 80 -33 12 -105 39 -160 60 -55 20 -109 40 -120
45 -53 21 -115 44 -295 111 -107 39 -208 77 -225 84 -16 7 -394 149 -840 315
-445 166 -848 317 -895 335 -424 164 -1605 600 -1666 615 -43 11 -103 23 -134
26 -67 7 -208 13 -212 9z"/>
</g>
</svg>
