<svg width="19" height="18" viewBox="0 0 19 18" xmlns="http://www.w3.org/2000/svg">
    <path fill-rule="evenodd" clip-rule="evenodd" d="M0 2C0 0.895431 0.89543 0 2 0H16C17.1046 0 18 0.895431 18 2V3H9C7.89543 3 7 3.89543 7 5V13C7 14.1046 7.89543 15 9 15H18V16C18 17.1046 17.1046 18 16 18H2C0.895431 18 0 17.1046 0 16V2ZM9 6C9 5.44772 9.44772 5 10 5H19V13H10C9.44771 13 9 12.5523 9 12V6ZM14 9C14 9.55231 13.5523 10 13 10C12.4477 10 12 9.55231 12 9C12 8.44769 12.4477 8 13 8C13.5523 8 14 8.44769 14 9Z" fill-opacity="1"/>
</svg>
