<svg width="22" height="22" viewBox="0 0 22 22" xmlns="http://www.w3.org/2000/svg">
    <path fill-rule="evenodd" clip-rule="evenodd" d="M13.7191 2.63071L10.9997 0L8.28033 2.63071L4.53406 2.1008L3.88034 5.82748L0.538086 7.6008L2.19971 11L0.538086 14.3992L3.88034 16.1725L4.53406 19.8992L8.28033 19.3693L10.9997 22L13.7191 19.3693L17.4653 19.8992L18.119 16.1725L21.4613 14.3992L19.7997 11L21.4613 7.6008L18.119 5.82748L17.4653 2.1008L13.7191 2.63071ZM7.99969 9.5C8.82812 9.5 9.49969 8.82843 9.49969 8C9.49969 7.17157 8.82812 6.5 7.99969 6.5C7.17126 6.5 6.49969 7.17157 6.49969 8C6.49969 8.82843 7.17126 9.5 7.99969 9.5ZM15.4997 14C15.4997 14.8284 14.8281 15.5 13.9997 15.5C13.1713 15.5 12.4997 14.8284 12.4997 14C12.4997 13.1716 13.1713 12.5 13.9997 12.5C14.8281 12.5 15.4997 13.1716 15.4997 14ZM15.8992 7.41422L14.485 6L5.99969 14.4853L7.41391 15.8995L15.8992 7.41422Z" fill-opacity="1"/>
</svg>
