<svg width="20" height="20" viewBox="0 0 20 20" xmlns="http://www.w3.org/2000/svg">
<g clip-path="url(#clip0_2018_119091)">
<path d="M7.38301 11.4014H15.409C15.8562 11.4027 16.2847 11.5809 16.6009 11.8972C16.9171 12.2134 17.0954 12.6419 17.0967 13.0891C17.0954 13.5363 16.9171 13.9648 16.6009 14.281C16.2847 14.5972 15.8562 14.7754 15.409 14.7768H7.38255C6.93544 14.7753 6.50706 14.597 6.19094 14.2808C5.87483 13.9646 5.69665 13.5362 5.69531 13.0891C5.69665 12.642 5.87483 12.2135 6.19094 11.8973C6.50706 11.5811 6.9359 11.4028 7.38301 11.4014ZM8.2813 15.1339L7.47528 18.5176C7.43045 18.6947 7.42806 18.8799 7.46831 19.0581C7.50855 19.2363 7.5903 19.4025 7.70689 19.5432C7.82025 19.6882 7.9657 19.805 8.13181 19.8844C8.29792 19.9637 8.48018 20.0034 8.66424 20.0004H14.1278C14.3119 20.0034 14.4941 19.9637 14.6602 19.8844C14.8263 19.805 14.9718 19.6882 15.0851 19.5432C15.2017 19.4025 15.2834 19.2363 15.3235 19.0581C15.3637 18.8798 15.3612 18.6946 15.3163 18.5176L14.5107 15.1334L8.2813 15.1339Z"/>
<path d="M7.58504 6.3449H13.4546C13.6363 6.34539 13.8104 6.41778 13.9389 6.54625C14.0673 6.67472 14.1397 6.84882 14.1402 7.0305V7.7161H7.95368L8.84735 11.044H7.38204C6.63784 11.044 5.98408 11.4463 5.62652 12.0442C5.42813 11.3162 5.23943 10.6343 5.03688 9.87716L3.49083 4.10633L3.27675 3.30769L2.95979 2.12474C2.84522 1.69235 2.90645 1.2322 3.1301 0.844819C3.35374 0.457438 3.72162 0.174322 4.15336 0.0573307C4.58568 -0.0570956 5.04571 0.00420218 5.43299 0.227836C5.82026 0.45147 6.10331 0.819267 6.2203 1.2509L6.27751 1.46405L7.04293 4.32087L7.19287 4.88051L7.58504 6.3449Z"/>
<path d="M7.56185 4.87674C8.02091 4.74987 8.33464 4.42368 8.26082 4.14778L7.61629 1.74311C7.54247 1.46721 7.10786 1.34171 6.64648 1.46121L7.56185 4.87674Z"/>
</g>
<defs>
<clipPath id="clip0_2018_119091">
<rect width="20" height="20"/>
</clipPath>
</defs>
</svg>
