<svg width="194" height="39" viewBox="0 0 194 39" fill="none" xmlns="http://www.w3.org/2000/svg">
<path fill-rule="evenodd" clip-rule="evenodd" d="M7.40426 0.344583L44.4315 14.2225C47.2726 15.2873 48.7134 18.4561 47.6497 21.3001C47.0927 22.7893 45.9191 23.9641 44.4315 24.5217L7.40426 38.3996C4.60002 39.4506 1.4756 38.027 0.425667 35.2198C-0.0692568 33.8965 -0.0291589 32.4322 0.537438 31.138L4.72239 21.5793C5.33836 20.1724 5.33836 18.5717 4.72239 17.1648L0.537438 7.60611C-0.664541 4.86072 0.584306 1.65971 3.32682 0.456472C4.6196 -0.110721 6.08238 -0.150861 7.40426 0.344583Z" fill="url(#paint0_linear)"/>
<path fill-rule="evenodd" clip-rule="evenodd" d="M10.4737 31.1434C11.0394 32.4369 11.0792 33.9004 10.5846 35.2228C9.77527 37.3868 7.7333 38.7278 5.55642 38.7458L5.39807 38.7464C3.21156 38.7384 1.15667 37.3953 0.344169 35.2228C-0.150414 33.9004 -0.110639 32.4369 0.455042 31.1434L4.53545 21.813C5.10254 20.5162 5.19484 18.8876 4.81232 17.4854L8.56692 26.5221L10.4737 31.1434Z" fill="url(#paint1_linear)"/>
<path d="M74.7742 21.7403C74.7529 21.8043 74.7635 21.8683 74.8062 21.9323C74.8489 21.9963 74.9023 22.0283 74.9663 22.0283H80.2812C80.3453 22.0283 80.3986 21.9963 80.4413 21.9323C80.484 21.8683 80.4947 21.8043 80.4733 21.7403L77.6558 11.6923C77.6558 11.671 77.6451 11.6603 77.6238 11.6603C77.6024 11.6603 77.5918 11.671 77.5918 11.6923L74.7742 21.7403ZM69.2992 31.0843C68.851 31.0843 68.4988 30.903 68.2427 30.5403C67.9865 30.1776 67.9332 29.783 68.0826 29.3563L74.7102 9.4523C74.9023 8.9403 75.2118 8.5243 75.6387 8.2043C76.0869 7.8843 76.5779 7.7243 77.1115 7.7243H78.2641C78.8191 7.7243 79.31 7.8843 79.7369 8.2043C80.1852 8.5243 80.4947 8.9403 80.6654 9.4523L87.293 29.3563C87.4425 29.783 87.3891 30.1776 87.133 30.5403C86.8768 30.903 86.5246 31.0843 86.0764 31.0843H84.9237C84.4115 31.0843 83.9312 30.9243 83.483 30.6043C83.0561 30.263 82.7679 29.8363 82.6185 29.3243L81.5939 25.7083C81.5726 25.5376 81.4552 25.4523 81.2417 25.4523H74.0058C73.8137 25.4523 73.6963 25.5376 73.6536 25.7083L72.629 29.3243C72.501 29.8363 72.2128 30.263 71.7646 30.6043C71.3377 30.9243 70.8574 31.0843 70.3238 31.0843H69.2992Z" fill="#020A0D" fill-opacity="0.9"/>
<path d="M97.1147 11.4363C96.6237 11.4363 96.1968 11.2656 95.834 10.9243C95.4711 10.5616 95.2897 10.135 95.2897 9.6443V9.5483C95.2897 9.05763 95.4711 8.63096 95.834 8.2683C96.1968 7.90563 96.6237 7.7243 97.1147 7.7243H110.754C111.245 7.7243 111.672 7.90563 112.035 8.2683C112.398 8.63096 112.579 9.05763 112.579 9.5483V9.6443C112.579 10.135 112.398 10.5616 112.035 10.9243C111.672 11.2656 111.245 11.4363 110.754 11.4363H106.464C106.293 11.4363 106.208 11.5323 106.208 11.7243V29.2603C106.208 29.751 106.026 30.1776 105.663 30.5403C105.3 30.903 104.874 31.0843 104.383 31.0843H103.486C102.995 31.0843 102.568 30.903 102.205 30.5403C101.843 30.1776 101.661 29.751 101.661 29.2603V11.7243C101.661 11.5323 101.576 11.4363 101.405 11.4363H97.1147Z" fill="#020A0D" fill-opacity="0.9"/>
<path d="M122.469 31.2123C121.999 31.2763 121.583 31.1483 121.22 30.8283C120.878 30.5083 120.708 30.1136 120.708 29.6443C120.708 29.1536 120.868 28.727 121.188 28.3643C121.529 28.0016 121.946 27.7563 122.437 27.6283C123.568 27.3296 124.347 26.6256 124.774 25.5163C125.201 24.407 125.414 22.4976 125.414 19.7883V9.5483C125.414 9.05763 125.585 8.63096 125.926 8.2683C126.289 7.90563 126.716 7.7243 127.207 7.7243H139.342C139.833 7.7243 140.249 7.90563 140.59 8.2683C140.953 8.63096 141.135 9.05763 141.135 9.5483V29.2603C141.135 29.751 140.953 30.1776 140.59 30.5403C140.249 30.903 139.833 31.0843 139.342 31.0843H138.477C137.986 31.0843 137.559 30.903 137.197 30.5403C136.834 30.1776 136.652 29.751 136.652 29.2603V11.6283C136.652 11.4363 136.567 11.3403 136.396 11.3403H130.153C129.982 11.3403 129.897 11.4363 129.897 11.6283V19.7243C129.897 23.7563 129.352 26.583 128.264 28.2043C127.196 29.8256 125.265 30.8283 122.469 31.2123Z" fill="#020A0D" fill-opacity="0.9"/>
<path d="M157.036 21.7403C157.015 21.8043 157.025 21.8683 157.068 21.9323C157.111 21.9963 157.164 22.0283 157.228 22.0283H162.543C162.607 22.0283 162.661 21.9963 162.703 21.9323C162.746 21.8683 162.757 21.8043 162.735 21.7403L159.918 11.6923C159.918 11.671 159.907 11.6603 159.886 11.6603C159.864 11.6603 159.854 11.671 159.854 11.6923L157.036 21.7403ZM151.561 31.0843C151.113 31.0843 150.761 30.903 150.505 30.5403C150.248 30.1776 150.195 29.783 150.344 29.3563L156.972 9.4523C157.164 8.9403 157.474 8.5243 157.901 8.2043C158.349 7.8843 158.84 7.7243 159.373 7.7243H160.526C161.081 7.7243 161.572 7.8843 161.999 8.2043C162.447 8.5243 162.757 8.9403 162.927 9.4523L169.555 29.3563C169.704 29.783 169.651 30.1776 169.395 30.5403C169.139 30.903 168.787 31.0843 168.338 31.0843H167.186C166.673 31.0843 166.193 30.9243 165.745 30.6043C165.318 30.263 165.03 29.8363 164.88 29.3243L163.856 25.7083C163.835 25.5376 163.717 25.4523 163.504 25.4523H156.268C156.076 25.4523 155.958 25.5376 155.916 25.7083L154.891 29.3243C154.763 29.8363 154.475 30.263 154.027 30.6043C153.6 30.9243 153.119 31.0843 152.586 31.0843H151.561Z" fill="#020A0D" fill-opacity="0.9"/>
<path d="M187.893 31.4043C184.521 31.4043 181.842 30.3696 179.857 28.3003C177.893 26.2096 176.911 23.2443 176.911 19.4043C176.911 15.607 177.861 12.663 179.761 10.5723C181.682 8.4603 184.361 7.4043 187.797 7.4043C189.377 7.4043 190.7 7.5003 191.767 7.6923C192.28 7.77763 192.707 8.03363 193.048 8.4603C193.39 8.88696 193.56 9.36696 193.56 9.9003V10.1563C193.56 10.6043 193.368 10.9563 192.984 11.2123C192.621 11.4683 192.226 11.543 191.799 11.4363C190.753 11.159 189.579 11.0203 188.277 11.0203C186.164 11.0203 184.499 11.7456 183.283 13.1963C182.087 14.647 181.49 16.7163 181.49 19.4043C181.49 22.071 182.109 24.1403 183.347 25.6123C184.606 27.063 186.282 27.7883 188.374 27.7883C189.782 27.7883 190.988 27.6603 191.991 27.4043C192.418 27.2976 192.813 27.3723 193.176 27.6283C193.56 27.8843 193.752 28.2363 193.752 28.6843V28.9083C193.752 29.4416 193.582 29.9216 193.24 30.3483C192.92 30.7536 192.493 30.999 191.959 31.0843C190.743 31.2976 189.387 31.4043 187.893 31.4043Z" fill="#020A0D" fill-opacity="0.9"/>
<defs>
<linearGradient id="paint0_linear" x1="16.0209" y1="31.4968" x2="24.0467" y2="6.64298" gradientUnits="userSpaceOnUse">
<stop stop-color="#0260FD"/>
<stop offset="1" stop-color="#0ACBFF"/>
</linearGradient>
<linearGradient id="paint1_linear" x1="2.17412" y1="37.5675" x2="8.24628" y2="30.8151" gradientUnits="userSpaceOnUse">
<stop stop-color="#24D0FF"/>
<stop offset="1" stop-color="#06B2FE"/>
</linearGradient>
</defs>
</svg>
