<svg width="201" height="49" viewBox="0 0 201 49" fill="none" xmlns="http://www.w3.org/2000/svg">
<path fill-rule="evenodd" clip-rule="evenodd" d="M7.40426 5.74888L44.4315 19.6268C47.2726 20.6916 48.7134 23.8604 47.6497 26.7044C47.0927 28.1936 45.9191 29.3684 44.4315 29.926L7.40426 43.8039C4.60002 44.8549 1.4756 43.4313 0.425667 40.6241C-0.0692568 39.3008 -0.0291589 37.8365 0.537438 36.5423L4.72239 26.9836C5.33836 25.5767 5.33836 23.976 4.72239 22.5691L0.537438 13.0104C-0.664541 10.265 0.584306 7.06401 3.32682 5.86077C4.6196 5.29358 6.08238 5.25344 7.40426 5.74888Z" fill="url(#paint0_linear)"/>
<path fill-rule="evenodd" clip-rule="evenodd" d="M10.4737 36.5477C11.0394 37.8412 11.0792 39.3047 10.5846 40.6271C9.77527 42.7911 7.7333 44.1321 5.55642 44.1501L5.39807 44.1507C3.21156 44.1427 1.15667 42.7996 0.344169 40.6271C-0.150414 39.3047 -0.110639 37.8412 0.455042 36.5477L4.53545 27.2173C5.10254 25.9205 5.19484 24.2919 4.81232 22.8896L8.56692 31.9264L10.4737 36.5477Z" fill="url(#paint1_linear)"/>
<path d="M77.336 17.0123L74.52 27.0603C74.4987 27.1243 74.5093 27.1883 74.552 27.2523C74.5947 27.3163 74.648 27.3483 74.712 27.3483H80.024C80.088 27.3483 80.1413 27.3163 80.184 27.2523C80.2267 27.1883 80.2373 27.1243 80.216 27.0603L77.4 17.0123C77.4 16.991 77.3893 16.9803 77.368 16.9803C77.3467 16.9803 77.336 16.991 77.336 17.0123ZM69.048 36.4043C68.6 36.4043 68.248 36.223 67.992 35.8603C67.736 35.4976 67.6827 35.103 67.832 34.6763L74.456 14.7723C74.648 14.2603 74.9573 13.8443 75.384 13.5243C75.832 13.2043 76.3227 13.0443 76.856 13.0443H78.008C78.5627 13.0443 79.0533 13.2043 79.48 13.5243C79.928 13.8443 80.2373 14.2603 80.408 14.7723L87.032 34.6763C87.1813 35.103 87.128 35.4976 86.872 35.8603C86.616 36.223 86.264 36.4043 85.816 36.4043H84.664C84.152 36.4043 83.672 36.2443 83.224 35.9243C82.7973 35.583 82.5093 35.1563 82.36 34.6443L81.336 31.0283C81.3147 30.8576 81.1973 30.7723 80.984 30.7723H73.752C73.56 30.7723 73.4427 30.8576 73.4 31.0283L72.376 34.6443C72.248 35.1563 71.96 35.583 71.512 35.9243C71.0853 36.2443 70.6053 36.4043 70.072 36.4043H69.048ZM97.207 16.7563C96.7163 16.7563 96.2897 16.5856 95.927 16.2443C95.5643 15.8816 95.383 15.455 95.383 14.9643V14.8683C95.383 14.3776 95.5643 13.951 95.927 13.5883C96.2897 13.2256 96.7163 13.0443 97.207 13.0443H110.839C111.33 13.0443 111.756 13.2256 112.119 13.5883C112.482 13.951 112.663 14.3776 112.663 14.8683V14.9643C112.663 15.455 112.482 15.8816 112.119 16.2443C111.756 16.5856 111.33 16.7563 110.839 16.7563H106.551C106.38 16.7563 106.295 16.8523 106.295 17.0443V34.5803C106.295 35.071 106.114 35.4976 105.751 35.8603C105.388 36.223 104.962 36.4043 104.471 36.4043H103.575C103.084 36.4043 102.658 36.223 102.295 35.8603C101.932 35.4976 101.751 35.071 101.751 34.5803V17.0443C101.751 16.8523 101.666 16.7563 101.495 16.7563H97.207ZM128.005 36.4043C127.514 36.4043 127.088 36.223 126.725 35.8603C126.384 35.4976 126.213 35.071 126.213 34.5803V14.8683C126.213 14.3776 126.384 13.951 126.725 13.5883C127.088 13.2256 127.514 13.0443 128.005 13.0443H129.029C129.52 13.0443 129.946 13.2256 130.309 13.5883C130.672 13.951 130.853 14.3776 130.853 14.8683V32.4043C130.853 32.5963 130.938 32.6923 131.109 32.6923H139.333C139.824 32.6923 140.24 32.8736 140.581 33.2363C140.944 33.5776 141.125 33.9936 141.125 34.4843V34.5803C141.125 35.071 140.944 35.4976 140.581 35.8603C140.24 36.223 139.824 36.4043 139.333 36.4043H128.005ZM162.77 17.0123L159.954 27.0603C159.932 27.1243 159.943 27.1883 159.986 27.2523C160.028 27.3163 160.082 27.3483 160.146 27.3483H165.458C165.522 27.3483 165.575 27.3163 165.618 27.2523C165.66 27.1883 165.671 27.1243 165.65 27.0603L162.834 17.0123C162.834 16.991 162.823 16.9803 162.802 16.9803C162.78 16.9803 162.77 16.991 162.77 17.0123ZM154.482 36.4043C154.034 36.4043 153.682 36.223 153.426 35.8603C153.17 35.4976 153.116 35.103 153.266 34.6763L159.89 14.7723C160.082 14.2603 160.391 13.8443 160.818 13.5243C161.266 13.2043 161.756 13.0443 162.29 13.0443H163.442C163.996 13.0443 164.487 13.2043 164.914 13.5243C165.362 13.8443 165.671 14.2603 165.842 14.7723L172.466 34.6763C172.615 35.103 172.562 35.4976 172.306 35.8603C172.05 36.223 171.698 36.4043 171.25 36.4043H170.098C169.586 36.4043 169.106 36.2443 168.658 35.9243C168.231 35.583 167.943 35.1563 167.794 34.6443L166.77 31.0283C166.748 30.8576 166.631 30.7723 166.418 30.7723H159.186C158.994 30.7723 158.876 30.8576 158.834 31.0283L157.81 34.6443C157.682 35.1563 157.394 35.583 156.946 35.9243C156.519 36.2443 156.039 36.4043 155.506 36.4043H154.482ZM190.987 26.5483C188.427 25.695 186.571 24.6603 185.419 23.4443C184.288 22.2283 183.723 20.7563 183.723 19.0283C183.723 17.087 184.374 15.551 185.675 14.4203C186.976 13.2896 188.8 12.7243 191.147 12.7243C193.131 12.7243 194.859 12.9483 196.331 13.3963C196.843 13.5456 197.248 13.855 197.547 14.3243C197.867 14.7723 198.027 15.2736 198.027 15.8283V16.1163C198.027 16.5216 197.846 16.8416 197.483 17.0763C197.12 17.2896 196.747 17.3216 196.363 17.1723C194.763 16.5536 193.131 16.2443 191.467 16.2443C190.4 16.2443 189.59 16.4896 189.035 16.9803C188.48 17.471 188.203 18.1536 188.203 19.0283C188.203 20.5643 189.206 21.663 191.211 22.3243C194.091 23.2416 196.086 24.287 197.195 25.4603C198.326 26.6336 198.891 28.1483 198.891 30.0043C198.891 34.4843 196.128 36.7243 190.603 36.7243C188.875 36.7243 187.307 36.4576 185.899 35.9243C185.387 35.7323 184.982 35.4016 184.683 34.9323C184.406 34.463 184.267 33.9403 184.267 33.3643V32.9803C184.267 32.575 184.438 32.287 184.779 32.1163C185.12 31.9243 185.472 31.9136 185.835 32.0843C187.243 32.7883 188.726 33.1403 190.283 33.1403C192.992 33.1403 194.347 32.1163 194.347 30.0683C194.347 29.2363 194.091 28.5536 193.579 28.0203C193.067 27.4656 192.203 26.975 190.987 26.5483Z" fill="#020A0D" fill-opacity="0.9"/>
<defs>
<linearGradient id="paint0_linear" x1="16.0209" y1="36.9011" x2="24.0467" y2="12.0473" gradientUnits="userSpaceOnUse">
<stop stop-color="#0260FD"/>
<stop offset="1" stop-color="#0ACBFF"/>
</linearGradient>
<linearGradient id="paint1_linear" x1="2.17412" y1="42.9718" x2="8.24628" y2="36.2194" gradientUnits="userSpaceOnUse">
<stop stop-color="#24D0FF"/>
<stop offset="1" stop-color="#06B2FE"/>
</linearGradient>
</defs>
</svg>
