<svg width="48" height="48" viewBox="0 0 48 48" fill="none" xmlns="http://www.w3.org/2000/svg">
    <path fill-rule="evenodd" clip-rule="evenodd" d="M32.4943 27.1366C32.9921 27.6343 33.8317 27.4721 34.0204 26.7939C34.2678 25.9049 34.4 24.9679 34.4 24C34.4 18.2562 29.7438 13.6 24 13.6C18.2562 13.6 13.6 18.2562 13.6 24C13.6 24.9679 13.7322 25.9049 13.9796 26.7939C14.1683 27.4721 15.0079 27.6343 15.5057 27.1366L18.3369 24.3054C18.6403 24.002 18.8581 23.624 18.9684 23.2094C19.2524 22.1425 20.2184 21.4 21.3224 21.4H26.6776C27.7816 21.4 28.7476 22.1425 29.0316 23.2094C29.1419 23.624 29.3597 24.002 29.6631 24.3054L32.4943 27.1366ZM30.5194 32.1034C30.9527 31.7544 30.9534 31.1111 30.5599 30.7177L28.621 28.7787C28.0584 28.2161 27.2953 27.9 26.4996 27.9H21.5004C20.7047 27.9 19.9416 28.2161 19.379 28.7787L17.4401 30.7177C17.0466 31.1111 17.0473 31.7544 17.4806 32.1034C19.2641 33.5401 21.5316 34.4 24 34.4C26.4684 34.4 28.7359 33.5401 30.5194 32.1034ZM24 37C31.1797 37 37 31.1797 37 24C37 16.8203 31.1797 11 24 11C16.8203 11 11 16.8203 11 24C11 31.1797 16.8203 37 24 37Z" fill="#08293B" fill-opacity="0.38"/>
</svg>
