<svg width="48" height="48" viewBox="0 0 48 48" fill="none" xmlns="http://www.w3.org/2000/svg">
    <rect x="46" y="8" width="2" height="32" rx="0.5" fill="#08293B" fill-opacity="0.38"/>
    <path fill-rule="evenodd" clip-rule="evenodd" d="M23.8534 31.3535C24.0487 31.5487 24.3652 31.5487 24.5605 31.3535L31.9141 23.9999L24.5605 16.6464C24.3652 16.4511 24.0487 16.4511 23.8534 16.6464L23.1463 17.3535C22.951 17.5487 22.951 17.8653 23.1463 18.0606L28.0856 22.9999H16.4998C16.2237 22.9999 15.9998 23.2238 15.9998 23.4999L15.9998 24.4999C15.9998 24.7761 16.2237 24.9999 16.4998 24.9999H28.0856L23.1463 29.9393C22.951 30.1345 22.951 30.4511 23.1463 30.6464L23.8534 31.3535Z" fill="#08293B" fill-opacity="0.38"/>
</svg>
