<svg width="48" height="48" viewBox="0 0 48 48" fill="none" xmlns="http://www.w3.org/2000/svg">
    <rect width="48" height="48" rx="3" fill="#2B4A55" fill-opacity="0.08"/>
    <path fill-rule="evenodd" clip-rule="evenodd" d="M19.5 18C20.6046 18 21.5 17.1046 21.5 16C21.5 14.8954 20.6046 14 19.5 14C18.3954 14 17.5 14.8954 17.5 16C17.5 17.1046 18.3954 18 19.5 18ZM28.5 18C29.6046 18 30.5 17.1046 30.5 16C30.5 14.8954 29.6046 14 28.5 14C27.3954 14 26.5 14.8954 26.5 16C26.5 17.1046 27.3954 18 28.5 18ZM21 27V33.5C21 33.7761 20.7761 34 20.5 34H18.5C18.2239 34 18 33.7761 18 33.5V27H17C16.4477 27 16 26.5523 16 26V21C16 19.8954 16.8954 19 18 19H21C22.1046 19 23 19.8954 23 21V26C23 26.5523 22.5523 27 22 27H21ZM29.5 34C29.7761 34 30 33.7761 30 33.5V28H31.3767C31.6966 28 31.9342 27.7038 31.8648 27.3915L30.174 19.7831C30.0723 19.3255 29.6665 19 29.1978 19H27.8022C27.3335 19 26.9277 19.3255 26.826 19.7831L25.1352 27.3915C25.0658 27.7038 25.3034 28 25.6233 28H27V33.5C27 33.7761 27.2239 34 27.5 34H29.5Z" fill="#08293B" fill-opacity="0.44"/>
</svg>
