<svg width="44" height="44" viewBox="0 0 44 44" fill="none" xmlns="http://www.w3.org/2000/svg">
<rect width="44" height="44" rx="8" fill="#F2F3F5"/>
<path fill-rule="evenodd" clip-rule="evenodd" d="M17.5 16C18.6046 16 19.5 15.1046 19.5 14C19.5 12.8954 18.6046 12 17.5 12C16.3954 12 15.5 12.8954 15.5 14C15.5 15.1046 16.3954 16 17.5 16ZM26.5 16C27.6046 16 28.5 15.1046 28.5 14C28.5 12.8954 27.6046 12 26.5 12C25.3954 12 24.5 12.8954 24.5 14C24.5 15.1046 25.3954 16 26.5 16ZM19 25V31.5C19 31.7761 18.7761 32 18.5 32H16.5C16.2239 32 16 31.7761 16 31.5V25H15C14.4477 25 14 24.5523 14 24V19C14 17.8954 14.8954 17 16 17H19C20.1046 17 21 17.8954 21 19V24C21 24.5523 20.5523 25 20 25H19ZM27.5 32C27.7761 32 28 31.7761 28 31.5V26H29.3767C29.6966 26 29.9342 25.7038 29.8648 25.3915L28.174 17.7831C28.0723 17.3255 27.6665 17 27.1978 17H25.8022C25.3335 17 24.9277 17.3255 24.826 17.7831L23.1352 25.3915C23.0658 25.7038 23.3034 26 23.6233 26H25V31.5C25 31.7761 25.2239 32 25.5 32H27.5Z" fill="#A1ADB3"/>
</svg>
