<svg width="44" height="44" viewBox="0 0 44 44" fill="none" xmlns="http://www.w3.org/2000/svg">
<path fill-rule="evenodd" clip-rule="evenodd" d="M19.8534 29.3535C20.0487 29.5487 20.3652 29.5487 20.5605 29.3535L27.9141 21.9999L20.5605 14.6464C20.3652 14.4511 20.0487 14.4511 19.8534 14.6464L19.1463 15.3535C18.951 15.5487 18.951 15.8653 19.1463 16.0606L24.0856 20.9999H12.4998C12.2237 20.9999 11.9998 21.2238 11.9998 21.4999L11.9998 22.4999C11.9998 22.7761 12.2237 22.9999 12.4998 22.9999H24.0856L19.1463 27.9393C18.951 28.1345 18.951 28.4511 19.1463 28.6464L19.8534 29.3535Z" fill="#A1ADB3"/>
<rect x="42" y="6" width="2" height="32" rx="0.5" fill="#A1ADB3"/>
</svg>
