<svg width="44" height="44" viewBox="0 0 44 44" fill="none" xmlns="http://www.w3.org/2000/svg">
<path fill-rule="evenodd" clip-rule="evenodd" d="M30.4943 25.1366C30.9921 25.6343 31.8317 25.4721 32.0204 24.7939C32.2678 23.9049 32.4 22.9679 32.4 22C32.4 16.2562 27.7438 11.6 22 11.6C16.2562 11.6 11.6 16.2562 11.6 22C11.6 22.9679 11.7322 23.9049 11.9796 24.7939C12.1683 25.4721 13.0079 25.6343 13.5057 25.1366L16.3369 22.3054C16.6403 22.002 16.8581 21.624 16.9684 21.2094C17.2524 20.1425 18.2184 19.4 19.3224 19.4H24.6776C25.7816 19.4 26.7476 20.1425 27.0316 21.2094C27.1419 21.624 27.3597 22.002 27.6631 22.3054L30.4943 25.1366ZM28.5194 30.1034C28.9527 29.7544 28.9534 29.1111 28.5599 28.7177L26.621 26.7787C26.0584 26.2161 25.2953 25.9 24.4996 25.9H19.5004C18.7047 25.9 17.9416 26.2161 17.379 26.7787L15.4401 28.7177C15.0466 29.1111 15.0473 29.7544 15.4806 30.1034C17.2641 31.5401 19.5316 32.4 22 32.4C24.4684 32.4 26.7359 31.5401 28.5194 30.1034ZM22 35C29.1797 35 35 29.1797 35 22C35 14.8203 29.1797 9 22 9C14.8203 9 9 14.8203 9 22C9 29.1797 14.8203 35 22 35Z" fill="#A1ADB3"/>
</svg>
