<svg width="24" height="24" viewBox="0 0 24 24" fill="none" xmlns="http://www.w3.org/2000/svg">
<path fill-rule="evenodd" clip-rule="evenodd" d="M10.6127 2.875C9.38743 2.875 8.39414 3.86829 8.39414 5.09357V6.48057H7.37713C6.35606 6.48057 5.52832 7.30831 5.52832 8.32937V18.4978C5.52832 19.5189 6.35606 20.3466 7.37713 20.3466H7.3773C7.37752 20.857 7.7913 21.2706 8.3017 21.2706C8.8121 21.2706 9.22589 20.857 9.2261 20.3466H14.7725C14.7727 20.857 15.1865 21.2706 15.6969 21.2706C16.2073 21.2706 16.6211 20.857 16.6213 20.3466C17.6423 20.3465 18.47 19.5188 18.47 18.4978V8.32937C18.47 7.30831 17.6422 6.48057 16.6211 6.48057H15.6045V5.09357C15.6045 3.86829 14.6112 2.875 13.3859 2.875H10.6127ZM13.9406 6.48057V5.09357C13.9406 4.78725 13.6922 4.53892 13.3859 4.53892H10.6127C10.3064 4.53892 10.0581 4.78725 10.0581 5.09357V6.48057H13.9406ZM9.13377 10.1786C9.13377 9.71915 8.76129 9.34667 8.30181 9.34667C7.84233 9.34667 7.46984 9.71915 7.46984 10.1786L7.46985 16.6494C7.46985 17.1089 7.84233 17.4814 8.30181 17.4814C8.76129 17.4814 9.13377 17.1089 9.13377 16.6494L9.13377 10.1786ZM11.9994 9.34667C12.4589 9.34667 12.8314 9.71915 12.8314 10.1786L12.8314 16.6494C12.8314 17.1089 12.4589 17.4814 11.9994 17.4814C11.5399 17.4814 11.1675 17.1089 11.1675 16.6494L11.1675 10.1786C11.1675 9.71915 11.5399 9.34667 11.9994 9.34667ZM15.697 9.34667C16.1565 9.34667 16.529 9.71915 16.529 10.1786V16.6494C16.529 17.1089 16.1565 17.4814 15.697 17.4814C15.2375 17.4814 14.8651 17.1089 14.8651 16.6494V10.1786C14.8651 9.71915 15.2375 9.34667 15.697 9.34667Z" fill="#A1ADB3"/>
</svg>
