<svg width="23" height="23" viewBox="0 0 23 23" fill="none" xmlns="http://www.w3.org/2000/svg">
<path fill-rule="evenodd" clip-rule="evenodd" d="M10.749 5.28062C11.7701 5.28062 12.5978 4.45288 12.5978 3.43181C12.5978 2.41075 11.7701 1.58301 10.749 1.58301C9.72795 1.58301 8.90021 2.41075 8.90021 3.43181C8.90021 4.45288 9.72795 5.28062 10.749 5.28062ZM7.34432 9.02877C7.53791 9.44547 7.35703 9.94022 6.94032 10.1338C6.52859 10.3251 6.14394 10.5764 5.79938 10.8818C5.12783 11.477 4.6362 12.2533 4.38278 13.1208C4.12934 13.9884 4.12484 14.9107 4.36969 15.7801C4.61454 16.6495 5.09836 17.4294 5.76375 18.0299C6.42905 18.6303 7.24869 19.0268 8.12714 19.1743C9.00557 19.3219 9.90791 19.2147 10.7296 18.8646C11.5513 18.5146 12.2592 17.9357 12.7703 17.1941C13.0264 16.8224 13.2277 16.4176 13.3698 15.9924C13.5155 15.5566 13.9868 15.3214 14.4226 15.4671C14.8584 15.6127 15.0936 16.084 14.948 16.5198C14.7567 17.092 14.4857 17.6372 14.1404 18.1383C13.4514 19.138 12.4951 19.9211 11.3817 20.3954C10.2682 20.8698 9.04395 21.0156 7.85152 20.8153C6.65912 20.615 5.54867 20.0771 4.64898 19.2652C3.74936 18.4534 3.09754 17.401 2.76807 16.2312C2.43862 15.0613 2.44474 13.8211 2.7856 12.6542C3.12648 11.4873 3.78845 10.4407 4.6957 9.63659C5.16125 9.22396 5.68158 8.88386 6.23928 8.62477C6.65599 8.43118 7.15073 8.61206 7.34432 9.02877ZM9.94736 6.20502C9.39133 6.20502 8.96113 6.69235 9.03009 7.24408L9.7234 12.7905C9.78122 13.2531 10.1745 13.6002 10.6407 13.6002H12.4751C12.4838 13.6002 12.4925 13.6001 12.5012 13.5999H15.5265C15.571 13.5999 15.6093 13.6317 15.6174 13.6755L16.4018 17.9115C16.4748 18.3059 16.8188 18.592 17.2198 18.592H18.6064C19.0659 18.592 19.4384 18.2195 19.4384 17.76C19.4384 17.3006 19.0659 16.9281 18.6064 16.9281H17.9119L17.2535 13.3725C17.0993 12.54 16.3732 11.936 15.5265 11.936H13.3142L13.0485 9.81019H16.2954C16.7549 9.81019 17.1274 9.43771 17.1274 8.97823C17.1274 8.51875 16.7549 8.14627 16.2954 8.14627H12.8405L12.699 7.01476C12.6412 6.55217 12.248 6.20502 11.7818 6.20502H9.94736Z" fill="#1673D6"/>
</svg>
