<svg width="40" height="40" viewBox="0 0 40 40" fill="none" xmlns="http://www.w3.org/2000/svg">
    <g clip-path="url(#clip0)">
        <path d="M5.62511 24.319C5.48559 24.319 5.35006 24.2724 5.24011 24.1865L2.74011 22.2302C1.88312 21.5467 1.19158 20.6785 0.717134 19.6903C0.242685 18.7021 -0.00242142 17.6195 0.000112206 16.5233V12.5002C-0.00404795 12.1155 0.10756 11.7385 0.320441 11.4181C0.533321 11.0976 0.837637 10.8486 1.19386 10.7033C1.53504 10.5632 1.91086 10.5304 2.27114 10.6095C2.63141 10.6886 2.95898 10.8757 3.21011 11.1458L6.07636 14.1352C6.19107 14.2549 6.25353 14.4152 6.25002 14.581C6.2465 14.7467 6.17729 14.9043 6.05761 15.019C5.93793 15.1337 5.77759 15.1961 5.61185 15.1926C5.44612 15.1891 5.28857 15.1199 5.17386 15.0002L2.30761 12.0108C2.22864 11.9215 2.1236 11.8592 2.00731 11.8327C1.89102 11.8062 1.76936 11.817 1.65949 11.8633C1.53383 11.9142 1.427 12.0028 1.3537 12.1168C1.28039 12.2308 1.24421 12.3648 1.25011 12.5002V16.5233C1.24689 17.4299 1.44847 18.3254 1.8398 19.1432C2.23113 19.9609 2.80211 20.6797 3.51011 21.2458L6.01011 23.2021C6.11241 23.2823 6.18716 23.3924 6.22395 23.517C6.26075 23.6417 6.25776 23.7748 6.2154 23.8976C6.17303 24.0205 6.09341 24.1272 5.98761 24.2027C5.88181 24.2782 5.7551 24.3188 5.62511 24.319Z" fill="#075FFA"/>
        <path d="M34.375 24.319C34.2451 24.3188 34.1183 24.2782 34.0125 24.2027C33.9067 24.1272 33.8271 24.0205 33.7848 23.8976C33.7424 23.7748 33.7394 23.6417 33.7762 23.517C33.813 23.3924 33.8877 23.2823 33.99 23.2021L36.49 21.2458C37.198 20.6797 37.769 19.9609 38.1604 19.1432C38.5517 18.3254 38.7533 17.4299 38.75 16.5233V12.5002C38.7559 12.3648 38.7198 12.2308 38.6465 12.1168C38.5732 12.0028 38.4663 11.9142 38.3407 11.8633C38.2308 11.817 38.1091 11.8062 37.9928 11.8327C37.8766 11.8592 37.7715 11.9215 37.6925 12.0108L34.8263 15.0002C34.7116 15.1199 34.554 15.1891 34.3883 15.1926C34.2226 15.1961 34.0622 15.1337 33.9425 15.019C33.8229 14.9043 33.7537 14.7467 33.7501 14.581C33.7466 14.4152 33.8091 14.2549 33.9238 14.1352L36.79 11.1458C37.0412 10.8757 37.3687 10.6886 37.729 10.6095C38.0893 10.5304 38.4651 10.5632 38.8063 10.7033C39.1625 10.8486 39.4668 11.0976 39.6797 11.4181C39.8926 11.7385 40.0042 12.1155 40 12.5002V16.5233C40.0026 17.6195 39.7575 18.7021 39.283 19.6903C38.8086 20.6785 38.117 21.5467 37.26 22.2302L34.76 24.1865C34.6501 24.2724 34.5146 24.319 34.375 24.319Z" fill="#075FFA"/>
        <path d="M30.6253 23.1252C29.8279 25.3229 28.7792 27.4212 27.5003 29.3783C27.7378 29.2983 27.9753 29.2183 28.2109 29.1283L31.8547 27.7627C32.6115 27.4569 33.2578 26.9286 33.7079 26.2476C34.1579 25.5666 34.3907 24.765 34.3753 23.9489V15.4058C34.4002 14.4847 34.1036 13.5837 33.5366 12.8575C32.9696 12.1313 32.1674 11.6251 31.2678 11.4258L22.2734 9.73828C27.5103 12.7408 33.2503 16.8327 30.6253 23.1252Z" fill="#BDD5FF"/>
        <path d="M11.2505 20.6245C9.48797 17.0995 11.0392 13.0238 13.8267 10.4707L8.73297 11.4251C7.83338 11.6244 7.03123 12.1306 6.46419 12.8568C5.89716 13.583 5.60061 14.484 5.62547 15.4051V23.9482C5.60951 24.7644 5.84171 25.5662 6.29135 26.2475C6.741 26.9288 7.38689 27.4576 8.14359 27.7638L11.7873 29.1295C16.171 30.7787 20.95 31.0678 25.5005 29.9588C23.4018 28.465 21.1366 27.2202 18.7505 26.2495C16.8755 25.6245 12.5005 23.1245 11.2505 20.6245Z" fill="#5B97FF"/>
        <path d="M30.625 23.1245C33.25 16.832 27.51 12.7401 22.2731 9.73945L20.6425 9.43695C20.2179 9.35695 19.7821 9.35695 19.3575 9.43695L13.8263 10.4732C11.0388 13.0238 9.4875 17.0995 11.25 20.6245C12.5 23.1245 16.875 25.6245 18.75 26.2495C21.1361 27.2202 23.4013 28.465 25.5 29.9588C26.1729 29.7951 26.8408 29.6013 27.5038 29.3776C28.7814 27.4203 29.8287 25.322 30.625 23.1245Z" fill="#92B9FF"/>
        <path d="M30.6253 17.4998C30.6006 17.4999 30.576 17.4985 30.5515 17.4955L20.0003 16.2542L9.44841 17.4955C9.36622 17.5065 9.28265 17.5011 9.20258 17.4795C9.12251 17.4579 9.04754 17.4206 8.98203 17.3698C8.91651 17.3189 8.86178 17.2555 8.821 17.1833C8.78023 17.1111 8.75423 17.0315 8.74453 16.9492C8.73482 16.8668 8.74161 16.7833 8.76448 16.7036C8.78736 16.6239 8.82586 16.5496 8.87776 16.4849C8.92966 16.4202 8.99392 16.3665 9.06678 16.3269C9.13964 16.2873 9.21965 16.2626 9.30216 16.2542L19.9272 15.0042C19.9757 14.9986 20.0248 14.9986 20.0734 15.0042L30.6984 16.2542C30.8566 16.273 31.0016 16.3515 31.1039 16.4737C31.2061 16.5959 31.2579 16.7524 31.2485 16.9115C31.2392 17.0705 31.1695 17.22 31.0536 17.3293C30.9378 17.4387 30.7846 17.4997 30.6253 17.4998Z" fill="#075FFA"/>
        <path d="M30.6247 21.2498C30.6001 21.2499 30.5754 21.2485 30.551 21.2455L19.9997 20.0042L9.44785 21.2455C9.28467 21.262 9.12154 21.2138 8.99362 21.1111C8.8657 21.0085 8.78325 20.8597 8.76406 20.6968C8.74487 20.5339 8.79047 20.37 8.89103 20.2405C8.99159 20.1109 9.13905 20.026 9.3016 20.0042L19.9266 18.7542C19.9752 18.7486 20.0243 18.7486 20.0728 18.7542L30.6978 20.0042C30.856 20.023 31.0011 20.1015 31.1033 20.2237C31.2056 20.3459 31.2573 20.5024 31.248 20.6615C31.2386 20.8205 31.1689 20.97 31.0531 21.0793C30.9372 21.1887 30.784 21.2497 30.6247 21.2498Z" fill="#075FFA"/>
        <path d="M30.6247 24.9998C30.6001 24.9999 30.5754 24.9985 30.551 24.9955L19.9997 23.7542L9.44785 24.9955C9.28467 25.012 9.12154 24.9638 8.99362 24.8611C8.8657 24.7585 8.78325 24.6097 8.76406 24.4468C8.74487 24.2839 8.79047 24.12 8.89103 23.9905C8.99159 23.8609 9.13905 23.776 9.3016 23.7542L19.9266 22.5042C19.9752 22.4986 20.0243 22.4986 20.0728 22.5042L30.6978 23.7542C30.856 23.773 31.0011 23.8515 31.1033 23.9737C31.2056 24.0959 31.2573 24.2524 31.248 24.4115C31.2386 24.5705 31.1689 24.72 31.0531 24.8293C30.9372 24.9387 30.784 24.9997 30.6247 24.9998Z" fill="#075FFA"/>
        <path d="M28.2136 29.13L31.8573 27.7644C32.6141 27.4582 33.26 26.9295 33.7097 26.2481C34.1594 25.5668 34.3915 24.7649 34.3755 23.9488V15.4056C34.4003 14.4846 34.1038 13.5836 33.5367 12.8573C32.9697 12.1311 32.1676 11.6249 31.268 11.4256L20.643 9.435C20.2184 9.355 19.7826 9.355 19.358 9.435L8.73297 11.4256C7.83339 11.6249 7.03123 12.1311 6.46419 12.8573C5.89716 13.5836 5.60061 14.4846 5.62547 15.4056V23.9488C5.60942 24.7649 5.84159 25.5668 6.29124 26.2481C6.74089 26.9295 7.38684 27.4582 8.14359 27.7644L11.7873 29.13C17.0814 31.1229 22.9195 31.1229 28.2136 29.13V29.13Z" stroke="#075FFA" stroke-width="2" stroke-linecap="round" stroke-linejoin="round"/>
        <path d="M5.62514 14.5677L2.75889 11.5783C2.58295 11.3981 2.35644 11.2754 2.10932 11.2267C1.8622 11.1779 1.6061 11.2053 1.37487 11.3052C1.14364 11.4051 0.948168 11.5728 0.814302 11.7862C0.680436 11.9995 0.614475 12.2485 0.62514 12.5002V16.5233C0.619926 17.5251 0.842232 18.515 1.27529 19.4184C1.70835 20.3217 2.34087 21.115 3.12514 21.7383L5.62514 23.6939" stroke="#075FFA" stroke-width="2" stroke-linecap="round" stroke-linejoin="round"/>
        <path d="M34.375 14.5677L37.2412 11.5783C37.4172 11.3981 37.6437 11.2754 37.8908 11.2267C38.1379 11.1779 38.394 11.2053 38.6253 11.3052C38.8565 11.4051 39.052 11.5728 39.1858 11.7862C39.3197 11.9995 39.3857 12.2485 39.375 12.5002V16.5233C39.3802 17.5251 39.1579 18.515 38.7248 19.4184C38.2918 20.3217 37.6593 21.115 36.875 21.7383L34.375 23.6939" stroke="#075FFA" stroke-width="2" stroke-linecap="round" stroke-linejoin="round"/>
        <path d="M9.375 16.875L20 15.625L30.625 16.875" stroke="#075FFA" stroke-width="2" stroke-linecap="round" stroke-linejoin="round"/>
        <path d="M9.375 20.625L20 19.375L30.625 20.625" stroke="#075FFA" stroke-width="2" stroke-linecap="round" stroke-linejoin="round"/>
        <path d="M9.375 24.375L20 23.125L30.625 24.375" stroke="#075FFA" stroke-width="2" stroke-linecap="round" stroke-linejoin="round"/>
    </g>
    <defs>
        <clipPath id="clip0">
            <rect width="40" height="40" fill="white"/>
        </clipPath>
    </defs>
</svg>
