<svg width="17" height="15" viewBox="0 0 17 15" fill="none" xmlns="http://www.w3.org/2000/svg">
<path d="M16.4377 7.59766C16.4377 7.28613 16.298 6.97461 16.0724 6.74902L10.5939 1.28125C10.3361 1.03418 10.0568 0.916016 9.77751 0.916016C9.1115 0.916016 8.63884 1.38867 8.63884 2.01172C8.63884 2.34473 8.77849 2.62402 8.99333 2.82812L10.6261 4.48242L12.9142 6.56641L11.0021 6.44824H1.46306C0.754074 6.44824 0.281418 6.9209 0.281418 7.59766C0.281418 8.28516 0.754074 8.75781 1.46306 8.75781H11.0021L12.925 8.62891L10.6261 10.7236L8.99333 12.3672C8.77849 12.582 8.63884 12.8506 8.63884 13.1836C8.63884 13.8174 9.1115 14.2793 9.77751 14.2793C10.0568 14.2793 10.3361 14.1611 10.5832 13.9248L16.0724 8.45703C16.298 8.23145 16.4377 7.90918 16.4377 7.59766Z" fill="#1673D6"/>
</svg>
