<svg width="18" height="18" viewBox="0 0 18 18" fill="none" xmlns="http://www.w3.org/2000/svg">
<path fill-rule="evenodd" clip-rule="evenodd" d="M11.1922 12.6064C10.0236 13.4816 8.57233 14 7 14C3.13401 14 0 10.866 0 7C0 3.13401 3.13401 0 7 0C10.866 0 14 3.13401 14 7C14 8.57234 13.4816 10.0236 12.6064 11.1922L17.0018 15.5876C17.1971 15.7829 17.1971 16.0994 17.0018 16.2947L16.2947 17.0018C16.0994 17.1971 15.7828 17.1971 15.5876 17.0018L11.1922 12.6064ZM12 7C12 9.76142 9.76142 12 7 12C4.23858 12 2 9.76142 2 7C2 4.23858 4.23858 2 7 2C9.76142 2 12 4.23858 12 7Z" fill="#075FFA"/>
</svg>
