<svg width="18" height="18" viewBox="0 0 18 18" fill="none" xmlns="http://www.w3.org/2000/svg">
<path fill-rule="evenodd" clip-rule="evenodd" d="M0 1C0 0.447715 0.447715 0 1 0H17C17.5523 0 18 0.447715 18 1V17C18 17.5523 17.5523 18 17 18H1C0.447715 18 0 17.5523 0 17V12.5C0 12.2239 0.223858 12 0.5 12H1.5C1.77614 12 2 12.2239 2 12.5V16H16V2H2V5.5C2 5.77614 1.77614 6 1.5 6H0.5C0.223858 6 0 5.77614 0 5.5V1ZM9.58579 10H0.5C0.223858 10 0 9.77614 0 9.5V8.5C0 8.22386 0.223858 8 0.5 8H9.58579L7.64645 6.06066C7.45119 5.8654 7.45118 5.54882 7.64645 5.35355L8.35355 4.64645C8.54882 4.45118 8.8654 4.45118 9.06066 4.64645L13.4142 9L9.06066 13.3536C8.8654 13.5488 8.54882 13.5488 8.35355 13.3536L7.64645 12.6464C7.45118 12.4512 7.45118 12.1346 7.64645 11.9393L9.58579 10Z" fill="#052630" fill-opacity="0.62"/>
</svg>
