<svg width="18" height="18" viewBox="0 0 18 18" fill="none" xmlns="http://www.w3.org/2000/svg">
<path fill-rule="evenodd" clip-rule="evenodd" d="M9 18C13.9706 18 18 13.9706 18 9C18 4.02944 13.9706 0 9 0C4.02944 0 0 4.02944 0 9C0 13.9706 4.02944 18 9 18ZM7.91924 6.9482L5.53952 6.94817C5.53952 5.12035 6.89267 3.85738 8.97895 3.82963C11.1768 3.8004 12.4638 5.11087 12.4638 6.94817C12.4638 8.32962 11.8761 9.03871 11.3959 9.30325C10.9158 9.56778 10.2066 10.2133 10.2066 10.8094C10.2066 10.963 10.0821 11.0875 9.92845 11.0875H8.12704C7.92066 11.0875 7.74526 10.9367 7.71432 10.7327C7.59178 9.8244 7.89176 9.12063 8.84655 8.59083C9.82194 8.04778 9.96619 7.51487 9.96619 6.94819C9.96619 6.3815 9.58928 5.97788 8.97895 5.97788C8.24575 5.97788 7.92611 6.40515 7.91924 6.9482ZM10.3486 13.3154C10.3486 14.0571 9.78261 14.6399 8.97895 14.6399C8.17528 14.6399 7.61548 14.0571 7.61548 13.3154C7.61548 12.5803 8.17528 11.9975 8.97895 11.9975C9.78261 11.9975 10.3486 12.5803 10.3486 13.3154Z" fill="#052630" fill-opacity="0.62"/>
</svg>
