<svg width="18" height="18" viewBox="0 0 18 18" fill="none" xmlns="http://www.w3.org/2000/svg">
<path fill-rule="evenodd" clip-rule="evenodd" d="M3 0.5C3 0.223858 3.22386 0 3.5 0H4.5C4.77614 0 5 0.223858 5 0.5V2H13V0.5C13 0.223858 13.2239 0 13.5 0H14.5C14.7761 0 15 0.223858 15 0.5V2H16H17C17.5523 2 18 2.44772 18 3V4V6V16V17C18 17.5523 17.5523 18 17 18H16H2H1C0.447715 18 0 17.5523 0 17V16V6V4V3C0 2.44772 0.447715 2 1 2H2H3V0.5ZM2 6H16V16H2V6ZM5.5 8C5.77614 8 6 8.22386 6 8.5V9.5C6 9.77614 5.77614 10 5.5 10H4.5C4.22386 10 4 9.77614 4 9.5V8.5C4 8.22386 4.22386 8 4.5 8H5.5ZM13.5 10C13.7761 10 14 9.77614 14 9.5V8.5C14 8.22386 13.7761 8 13.5 8H12.5C12.2239 8 12 8.22386 12 8.5V9.5C12 9.77614 12.2239 10 12.5 10H13.5ZM8 8.5C8 8.22386 8.22386 8 8.5 8H9.5C9.77614 8 10 8.22386 10 8.5V9.5C10 9.77614 9.77614 10 9.5 10H8.5C8.22386 10 8 9.77614 8 9.5V8.5ZM4.5 12C4.22386 12 4 12.2239 4 12.5V13.5C4 13.7761 4.22386 14 4.5 14H5.5C5.77614 14 6 13.7761 6 13.5V12.5C6 12.2239 5.77614 12 5.5 12H4.5ZM8 12.5C8 12.2239 8.22386 12 8.5 12H9.5C9.77614 12 10 12.2239 10 12.5V13.5C10 13.7761 9.77614 14 9.5 14H8.5C8.22386 14 8 13.7761 8 13.5V12.5Z" fill="#052630" fill-opacity="0.62"/>
</svg>
