<svg width="20" height="16" viewBox="0 0 20 16" fill="none" xmlns="http://www.w3.org/2000/svg">
<path fill-rule="evenodd" clip-rule="evenodd" d="M20 1C20 0.447715 19.5523 0 19 0H1C0.447715 0 0 0.447715 0 1V6C1.10457 6 2 6.89543 2 8C2 9.10457 1.10457 10 0 10V15C0 15.5523 0.447715 16 1 16H19C19.5523 16 20 15.5523 20 15V10C18.8954 10 18 9.10457 18 8C18 6.89543 18.8954 6 20 6V1ZM10 13C10.5523 13 11 12.5523 11 12C11 11.4477 10.5523 11 10 11C9.44771 11 9 11.4477 9 12C9 12.5523 9.44771 13 10 13ZM11 8C11 8.55229 10.5523 9 10 9C9.44771 9 9 8.55229 9 8C9 7.44771 9.44771 7 10 7C10.5523 7 11 7.44771 11 8ZM10 5C10.5523 5 11 4.55229 11 4C11 3.44772 10.5523 3 10 3C9.44771 3 9 3.44772 9 4C9 4.55229 9.44771 5 10 5Z" fill="#052630" fill-opacity="0.62"/>
</svg>
