<svg width="22" height="16" viewBox="0 0 22 16" fill="none" xmlns="http://www.w3.org/2000/svg">
<g clip-path="url(#clip0_496_51901)">
<rect width="22" height="16" rx="2" fill="#1A47B8"/>
<path fill-rule="evenodd" clip-rule="evenodd" d="M0 10.6667H22V16H0V10.6667Z" fill="#F93939"/>
<mask id="path-3-inside-1_496_51901" fill="white">
<path d="M0 2C0 0.89543 0.895431 0 2 0H20C21.1046 0 22 0.89543 22 2V5.33H0V2Z"/>
</mask>
<path d="M0 2C0 0.89543 0.895431 0 2 0H20C21.1046 0 22 0.89543 22 2V5.33H0V2Z" fill="white"/>
<path d="M-0.2 2C-0.2 0.784974 0.784974 -0.2 2 -0.2H20C21.215 -0.2 22.2 0.784974 22.2 2H21.8C21.8 1.00589 20.9941 0.2 20 0.2H2C1.00589 0.2 0.2 1.00589 0.2 2H-0.2ZM22 5.33H0H22ZM-0.2 5.33V2C-0.2 0.784974 0.784974 -0.2 2 -0.2V0.2C1.00589 0.2 0.2 1.00589 0.2 2V5.33H-0.2ZM20 -0.2C21.215 -0.2 22.2 0.784974 22.2 2V5.33H21.8V2C21.8 1.00589 20.9941 0.2 20 0.2V-0.2Z" fill="#E2E2E2" mask="url(#path-3-inside-1_496_51901)"/>
</g>
<defs>
<clipPath id="clip0_496_51901">
<rect width="22" height="16" rx="2" fill="white"/>
</clipPath>
</defs>
</svg>
