<svg width="170" height="138" viewBox="0 0 170 138" fill="none" xmlns="http://www.w3.org/2000/svg">
    <g filter="url(#filter0_ii)">
        <path fill-rule="evenodd" clip-rule="evenodd" d="M12.5588 55.5323C3.44664 34.7318 -1.10942 24.3316 0.230339 17.5351C1.88018 9.16563 8.19977 2.49282 16.4677 0.390206C23.1817 -1.31724 33.8152 2.6659 55.0822 10.6322L122.5 35.8859C149.853 46.1319 163.53 51.2549 167.452 58.6975C170.849 65.1456 170.849 72.8544 167.452 79.3025C163.53 86.7451 149.853 91.8681 122.5 102.114L55.0823 127.368C33.8152 135.334 23.1817 139.317 16.4677 137.61C8.19977 135.507 1.88018 128.834 0.230339 120.465C-1.10942 113.668 3.44663 103.268 12.5588 82.4677C14.5377 77.9502 15.5272 75.6914 15.9962 73.3624C16.576 70.483 16.576 67.517 15.9962 64.6376C15.5272 62.3086 14.5377 60.0498 12.5588 55.5323Z" fill="url(#paint0_linear)"/>
        <path fill-rule="evenodd" clip-rule="evenodd" d="M12.5588 55.5323C3.44664 34.7318 -1.10942 24.3316 0.230339 17.5351C1.88018 9.16563 8.19977 2.49282 16.4677 0.390206C23.1817 -1.31724 33.8152 2.6659 55.0822 10.6322L122.5 35.8859C149.853 46.1319 163.53 51.2549 167.452 58.6975C170.849 65.1456 170.849 72.8544 167.452 79.3025C163.53 86.7451 149.853 91.8681 122.5 102.114L55.0823 127.368C33.8152 135.334 23.1817 139.317 16.4677 137.61C8.19977 135.507 1.88018 128.834 0.230339 120.465C-1.10942 113.668 3.44663 103.268 12.5588 82.4677C14.5377 77.9502 15.5272 75.6914 15.9962 73.3624C16.576 70.483 16.576 67.517 15.9962 64.6376C15.5272 62.3086 14.5377 60.0498 12.5588 55.5323Z" fill="url(#paint1_radial)"/>
        <path fill-rule="evenodd" clip-rule="evenodd" d="M12.5588 55.5323C3.44664 34.7318 -1.10942 24.3316 0.230339 17.5351C1.88018 9.16563 8.19977 2.49282 16.4677 0.390206C23.1817 -1.31724 33.8152 2.6659 55.0822 10.6322L122.5 35.8859C149.853 46.1319 163.53 51.2549 167.452 58.6975C170.849 65.1456 170.849 72.8544 167.452 79.3025C163.53 86.7451 149.853 91.8681 122.5 102.114L55.0823 127.368C33.8152 135.334 23.1817 139.317 16.4677 137.61C8.19977 135.507 1.88018 128.834 0.230339 120.465C-1.10942 113.668 3.44663 103.268 12.5588 82.4677C14.5377 77.9502 15.5272 75.6914 15.9962 73.3624C16.576 70.483 16.576 67.517 15.9962 64.6376C15.5272 62.3086 14.5377 60.0498 12.5588 55.5323Z" fill="url(#paint2_radial)"/>
    </g>
    <defs>
        <filter id="filter0_ii" x="0" y="0" width="170" height="144" filterUnits="userSpaceOnUse" color-interpolation-filters="sRGB">
            <feFlood flood-opacity="0" result="BackgroundImageFix"/>
            <feBlend mode="normal" in="SourceGraphic" in2="BackgroundImageFix" result="shape"/>
            <feColorMatrix in="SourceAlpha" type="matrix" values="0 0 0 0 0 0 0 0 0 0 0 0 0 0 0 0 0 0 127 0" result="hardAlpha"/>
            <feOffset dy="6"/>
            <feGaussianBlur stdDeviation="3.5"/>
            <feComposite in2="hardAlpha" operator="arithmetic" k2="-1" k3="1"/>
            <feColorMatrix type="matrix" values="0 0 0 0 1 0 0 0 0 1 0 0 0 0 1 0 0 0 0.1 0"/>
            <feBlend mode="normal" in2="shape" result="effect1_innerShadow"/>
            <feColorMatrix in="SourceAlpha" type="matrix" values="0 0 0 0 0 0 0 0 0 0 0 0 0 0 0 0 0 0 127 0" result="hardAlpha"/>
            <feOffset/>
            <feGaussianBlur stdDeviation="1"/>
            <feComposite in2="hardAlpha" operator="arithmetic" k2="-1" k3="1"/>
            <feColorMatrix type="matrix" values="0 0 0 0 1 0 0 0 0 1 0 0 0 0 1 0 0 0 0.5 0"/>
            <feBlend mode="normal" in2="effect1_innerShadow" result="effect2_innerShadow"/>
        </filter>
        <linearGradient id="paint0_linear" x1="103" y1="27" x2="39" y2="132" gradientUnits="userSpaceOnUse">
            <stop stop-color="#09BBFF"/>
            <stop offset="0.668474" stop-color="#036FFE"/>
        </linearGradient>
        <radialGradient id="paint1_radial" cx="0" cy="0" r="1" gradientUnits="userSpaceOnUse" gradientTransform="translate(175.18 -27.2004) rotate(143.79) scale(146.441 140.379)">
            <stop stop-color="white"/>
            <stop offset="1" stop-color="white" stop-opacity="0.01"/>
        </radialGradient>
        <radialGradient id="paint2_radial" cx="0" cy="0" r="1" gradientUnits="userSpaceOnUse" gradientTransform="translate(143.887 -63.707) rotate(146.012) scale(192.217 179.181)">
            <stop stop-color="white" stop-opacity="0.8"/>
            <stop offset="1" stop-color="white" stop-opacity="0.01"/>
        </radialGradient>
    </defs>
</svg>
