<svg width="16" height="16" viewBox="0 0 16 16" fill="none" xmlns="http://www.w3.org/2000/svg">
<path d="M14.1681 12.2999C13.9449 12.8065 13.6808 13.2728 13.3748 13.7015C12.9577 14.286 12.6161 14.6905 12.3529 14.9152C11.9449 15.284 11.5077 15.4728 11.0396 15.4835C10.7035 15.4835 10.2982 15.3896 9.82636 15.1989C9.35304 15.0092 8.91804 14.9152 8.52033 14.9152C8.10316 14.9152 7.65577 15.0092 7.17727 15.1989C6.698 15.3896 6.31194 15.4889 6.01674 15.4988C5.56782 15.5176 5.12035 15.3233 4.6737 14.9152C4.38863 14.6708 4.03205 14.252 3.60489 13.6586C3.14659 13.0249 2.7698 12.2901 2.47461 11.4523C2.15848 10.5474 2 9.6712 2 8.82287C2 7.85113 2.21367 7.01303 2.64165 6.31071C2.978 5.74654 3.42547 5.30155 3.98551 4.97485C4.54555 4.64816 5.15068 4.48169 5.80235 4.47103C6.1589 4.47103 6.62651 4.57943 7.20761 4.79244C7.78704 5.00618 8.15909 5.11458 8.3222 5.11458C8.44417 5.11458 8.85749 4.98783 9.55816 4.73516C10.2207 4.50084 10.78 4.40382 11.2381 4.44204C12.4795 4.54049 13.4121 5.02139 14.0324 5.88779C12.9221 6.54887 12.3729 7.47478 12.3839 8.66257C12.3939 9.58779 12.7354 10.3577 13.4067 10.969C13.7109 11.2527 14.0506 11.472 14.4286 11.6277C14.3466 11.8613 14.2601 12.0851 14.1681 12.2999ZM11.321 1.29008C11.321 2.01525 11.0514 2.69233 10.514 3.31904C9.86553 4.06406 9.08116 4.49458 8.23057 4.42664C8.21977 4.33964 8.21347 4.24808 8.21347 4.15187C8.21347 3.45571 8.52187 2.71068 9.0695 2.10152C9.34293 1.79309 9.69067 1.53664 10.1123 1.33206C10.5332 1.13053 10.9312 1.01909 11.3055 1C11.3164 1.09694 11.321 1.1939 11.321 1.29008Z" fill="white"/>
</svg>
