<svg width="16" height="16" viewBox="0 0 16 16" fill="none" xmlns="http://www.w3.org/2000/svg">
<path fill-rule="evenodd" clip-rule="evenodd" d="M5.36705 2C2.90175 2 2.00005 2.90155 2.00005 5.36634V10.6337C2.00005 13.0985 2.90175 14 5.36705 14H10.6314C13.0967 14 14 13.0985 14 10.6337V5.36634C14 2.90155 13.0983 2 10.633 2H5.36705ZM7.2347 8.95978H7.71646L7.47476 8.39768L7.2347 8.95978ZM7.11607 9.24304L6.97314 9.5701H6.64773L7.33974 8.00012H7.62098L8.31019 9.5701H7.9761L7.83499 9.24304H7.11607ZM12.3525 9.56894H12.667V8.00002H12.3525V9.56894ZM11.1007 8.89496H11.6805V8.6089H11.1007V8.28734H11.9423V8.00118H10.7863V9.57H11.9726V9.28384H11.1007V8.89496ZM9.85104 9.08034L9.49447 8.00002H9.23426L8.87769 9.08034L8.53067 8.00089H8.19137L8.739 9.57096H9.00278L9.35993 8.53965L9.71707 9.57096H9.98317L10.5294 8.00089H10.1988L9.85104 9.08034ZM6.16761 8.8993C6.16761 9.1547 6.04078 9.29117 5.81046 9.29117C5.57889 9.29117 5.45139 9.15074 5.45139 8.8884V8.00109H5.13263V8.8993C5.13263 9.34113 5.37818 9.5945 5.80612 9.5945C6.2383 9.5945 6.48608 9.33631 6.48608 8.88619V8.00012H6.16761V8.8993ZM4.37214 8.00012H4.69071V9.57106H4.37214V8.93306H3.65245V9.57106H3.33369V8.00012H3.65245V8.63378H4.37214V8.00012ZM6.00022 3.99924C6.00022 5.10206 6.89731 5.99924 8.00022 5.99924C9.10304 5.99924 10.0002 5.10206 10.0002 3.99924H9.50022C9.50022 4.9462 8.94718 5.49924 8.00022 5.49924C7.05327 5.49924 6.50022 4.9462 6.50022 3.99924H6.00022Z" fill="white"/>
</svg>
