<svg width="16" height="16" viewBox="0 0 16 16" fill="none" xmlns="http://www.w3.org/2000/svg">
<path d="M8.97528 7.23909L10.7386 5.40244L5.15424 2.19186C4.93577 2.0654 4.68983 1.99935 4.43989 2C4.18995 2.00066 3.94434 2.068 3.72648 2.19561L8.97528 7.23909ZM3.2016 2.71158C3.07344 2.92982 3 3.17956 3 3.44429V12.5533C3 12.8098 3.06696 13.0543 3.18792 13.268L8.46624 7.77006L3.2016 2.71158ZM13.0764 6.74637L11.3945 5.77968L9.50449 7.74758L11.8207 9.97272L13.0771 9.2505C13.5293 8.98952 13.8 8.52154 13.8 7.99805C13.7996 7.74073 13.732 7.48832 13.6046 7.26789C13.4771 7.04742 13.2946 6.86718 13.0764 6.74637ZM8.99545 8.27855L3.70272 13.7915C3.92615 13.9265 4.17955 13.9984 4.43784 14C4.68264 14 4.92888 13.9355 5.15424 13.8058L11.1569 10.3552L8.99545 8.27855Z" fill="white"/>
</svg>
