<svg width="21" height="20" viewBox="0 0 21 20" fill="none" xmlns="http://www.w3.org/2000/svg">
<g clip-path="url(#clip0_2477_31)">
<path d="M13.8334 13.3333L10.5001 10L7.16675 13.3333" stroke="#1673D6" stroke-width="2" stroke-linecap="round" stroke-linejoin="round"/>
<path d="M10.5 10V17.5" stroke="#1673D6" stroke-width="2" stroke-linecap="round" stroke-linejoin="round"/>
<path d="M17.4916 15.325C18.3044 14.8819 18.9465 14.1807 19.3165 13.3322C19.6866 12.4836 19.7635 11.536 19.5351 10.6389C19.3068 9.74179 18.7862 8.94626 18.0555 8.37787C17.3248 7.80948 16.4257 7.50061 15.5 7.5H14.45C14.1977 6.52436 13.7276 5.61861 13.0749 4.85082C12.4222 4.08304 11.604 3.47321 10.6817 3.06717C9.75943 2.66113 8.75709 2.46946 7.75006 2.50657C6.74304 2.54367 5.75752 2.80858 4.86761 3.28138C3.97771 3.75419 3.20656 4.42258 2.61215 5.23631C2.01774 6.05005 1.61554 6.98794 1.43578 7.97949C1.25602 8.97104 1.30339 9.99044 1.57431 10.961C1.84523 11.9317 2.33267 12.8282 2.99997 13.5833" stroke="#1673D6" stroke-width="2" stroke-linecap="round" stroke-linejoin="round"/>
<path d="M13.8334 13.3333L10.5001 10L7.16675 13.3333" stroke="#1673D6" stroke-width="2" stroke-linecap="round" stroke-linejoin="round"/>
</g>
<defs>
<clipPath id="clip0_2477_31">
<rect width="20" height="20" fill="white" transform="translate(0.5)"/>
</clipPath>
</defs>
</svg>
